<?xml version="1.0" encoding="utf-8"?>
<!DOCTYPE svg PUBLIC "-//W3C//DTD SVG 20010904//EN" "http://www.w3.org/TR/2001/REC-SVG-20010904/DTD/svg10.dtd">
<svg version="1.0" xmlns="http://www.w3.org/2000/svg" width="270px" height="187px" viewBox="0 0 270 187" preserveAspectRatio="xMidYMid meet">
 <g fill="#ffffff">
  <path d="M3.3 184.7 c-3.3 -2.2 -3.3 -2.2 -3.3 -11.9 0 -10.6 0.2 -11 5.5 -8.6 2.2 1 2.8 0.9 3.6 -0.3 1.6 -2.5 1 -3.4 -4.1 -6.4 -5 -3 -5 -3 -5 -9.2 0 -5.1 0.3 -6.3 1.6 -6.3 0.9 0 6.1 3 11.6 6.6 10 6.5 10 6.5 9.6 11.7 -0.3 5.2 -0.3 5.2 5.1 4.2 5 -0.9 5.2 -1 2.2 -1.6 -1.8 -0.4 -3.3 -0.8 -3.4 -1 -0.2 -0.2 -1.3 -3.6 -2.5 -7.5 -3.7 -11.9 -3 -14.3 5.5 -16.9 3.2 -1 5.9 -1.9 6.1 -2.1 0.7 -0.5 -10.9 -16.2 -12.4 -16.8 -2.2 -0.9 -2.3 -0.8 -1.7 1.3 0.3 1.1 1.3 2.1 2.4 2.4 1.5 0.4 1.9 1.4 1.9 5.2 0 4.3 -0.4 5 -5.1 9.6 -4.3 4.2 -5.6 4.9 -9 4.9 -2.4 0 -4.2 -0.5 -4.5 -1.3 -0.3 -0.8 -2 -2 -3.9 -2.7 -3.5 -1.4 -3.5 -1.4 -3.5 -17.8 0 -16.5 0 -16.5 5.2 -16 4.6 0.5 5.7 1.1 10 5.6 4.8 5.1 4.8 5.1 4.8 -0.3 0 -6.4 1.3 -7.5 8.5 -7.5 6.2 0 8.5 1.3 8.5 5.1 0 1.6 1 4.9 2.2 7.2 2.3 4.2 2.3 4.2 2.6 0.7 0.2 -1.9 1 -4.2 1.8 -5.1 1.2 -1.3 1.3 -3.3 0.8 -9.5 -0.5 -6.6 -0.4 -8.2 0.9 -9.3 0.9 -0.7 6.4 -1.7 12.4 -2.2 5.9 -0.5 11.1 -1.1 11.5 -1.2 0.4 -0.1 -0.4 -2 -1.8 -4.2 -2.3 -3.8 -2.4 -3.9 -2.4 -1.3 0 3.5 -2.4 4.8 -8.8 4.8 -4.9 0 -4.9 0 -5.6 -5.5 -0.4 -4.1 -1.8 -7.4 -5 -12.6 -3.6 -5.7 -4.6 -8.4 -5.1 -13.4 -0.9 -8.2 1 -12.5 5.8 -12.6 1.7 0 2.5 -0.3 1.7 -0.6 -0.8 -0.2 -2.5 -0.9 -3.6 -1.5 -1.2 -0.5 -4.6 -1.1 -7.5 -1.2 -5.4 -0.1 -5.4 -0.1 -5.7 -3.8 -0.3 -3.8 -0.3 -3.8 4.2 -3.8 2.4 0 4.6 -0.4 4.8 -1 0.7 -2.3 11.5 -5.1 21.8 -5.7 13.2 -0.7 13.1 -0.8 13.8 12.6 0.5 10 -1 19.9 -3.2 21.3 -0.8 0.5 -0.7 0.8 0.2 0.8 0.6 0 1.2 0.9 1.2 2 0 1.3 0.7 2 2 2 1.5 0 2 -0.7 2 -2.5 0 -3.2 4.1 -11.4 5.7 -11.5 0.7 0 1.9 -1.1 2.8 -2.4 2.2 -3.3 12.8 -6.1 23.7 -6.1 9.5 0 10.6 0.5 11.7 5.6 0.5 2.4 1.3 3.5 3.1 3.9 2 0.5 2.6 1.3 2.8 4.2 0.2 2.9 -0.1 3.6 -1.7 4.1 -1.5 0.3 -2.1 1.3 -2.1 3.1 0 2.4 0.4 2.6 3.9 2.6 2.2 0 4.2 0.4 4.6 1 0.3 0.5 2 1.9 3.8 3.2 3.1 2.3 3.1 2.3 0.8 -1.7 -1.4 -2.2 -3.2 -4.9 -4.2 -6 -2.6 -2.9 -3.9 -7 -3.9 -12.1 0 -2.4 0.1 -4.5 0.3 -4.5 0.1 -0.1 5 -0.4 11 -0.8 10.7 -0.6 10.7 -0.6 7.5 -7.1 -2.7 -5.5 -3.2 -6.1 -3.5 -4 -0.2 1.4 -0.9 4 -1.5 5.9 -1 3.4 -1 3.4 -9.1 2.7 -4.4 -0.4 -8.4 -0.9 -9 -1.3 -1.5 -0.9 -0.2 -17.6 1.7 -21.3 0.9 -1.8 1.6 -5.4 1.6 -8 0 -2.6 0.3 -6.1 0.6 -7.8 0.6 -3.1 0.6 -3.1 15.6 -3.1 12.2 0 15 0.3 15.5 1.5 0.5 1.3 0.8 1.3 2.9 -0.1 1.9 -1.2 4.6 -1.5 12.2 -1.3 9.7 0.3 9.7 0.3 10.2 3.8 0.6 3.5 0.6 3.5 1.3 -0.2 0.8 -3.8 0.8 -3.8 15.5 -3.7 17.5 0.1 24.5 1.7 25.1 5.9 0.3 2.3 0.4 2.2 1.5 -1 1.1 -3.5 1.1 -3.5 18.6 -4.2 14.8 -0.5 17.7 -0.4 18.7 0.9 1.2 1.5 2.8 17.9 2.2 22.3 -0.4 2.5 -0.6 2.5 -18.2 4.4 -19.7 2 -20.7 1.8 -20.7 -3.8 0 -1.7 -0.5 -3.8 -1 -4.6 -0.8 -1.3 -1 -1.2 -1 0.3 0 0.9 -0.6 1.7 -1.3 1.7 -1.1 0 -5 12 -4.2 12.9 0.2 0.1 1.4 -0.4 2.7 -1.3 2.6 -1.9 7.7 -2.1 11.2 -0.4 3.3 1.4 3.7 3.9 3.9 21.9 0.2 14.4 0.2 14.4 -2.5 14.7 -2.5 0.3 -2.8 0.7 -2.8 4 0 7.2 -11.3 19.5 -19.3 21.1 -2.5 0.5 -1.6 1.1 7 4.3 5.4 2 11.6 4.4 13.8 5.3 5 2.1 3.8 0.8 -2.3 -2.6 -4.1 -2.2 -4.7 -3 -5 -6.3 -0.2 -2.1 0.1 -4.3 0.6 -4.9 0.5 -0.7 2.3 -3.8 4.1 -6.9 1.7 -3.2 4.5 -8.4 6.2 -11.5 4.3 -7.8 4.7 -8.3 8 -8.3 1.9 0 2.9 -0.5 2.9 -1.5 0 -0.8 -0.8 -1.5 -1.8 -1.5 -3.1 0 -6.2 -3.7 -6.2 -7.5 0 -1.9 -0.4 -3.7 -1 -4 -0.5 -0.3 -1 -3.2 -1 -6.5 0 -5.4 0.3 -6 3.5 -8.8 5.5 -4.9 16.7 -5.5 23.7 -1.4 2.8 1.6 2.8 1.6 2.8 14.2 0 12.5 0 12.5 -5.5 16 -6.1 3.9 -6.9 5.7 -2.7 6.6 7.9 1.7 8.2 2 8.2 9.6 0 4.6 -0.5 7.7 -1.6 9.3 -1.5 2.3 -1.5 2.5 0 2.5 1.3 0 1.6 1.1 1.6 5 0 4.6 -0.2 5 -2.4 5 -1.9 0 -2.5 -0.6 -2.8 -2.7 -0.3 -2.3 -0.8 -1.7 -4.3 4.8 -3.8 6.9 -4.2 7.4 -7.7 7.7 -3.6 0.3 -3.6 0.3 -4 5.5 -0.2 2.9 -0.8 6 -1.2 7 -0.7 1.4 -0.3 1.7 2.8 1.7 4.8 0 8.6 3.8 8.6 8.6 0 2.4 0.5 3.4 1.5 3.4 0.8 0 2 0.9 2.7 2 0.8 1.2 2.4 2 4 2 2.7 0 2.8 0.2 2.8 5.6 0 4 -0.6 6.4 -2 8.5 -2.1 2.8 -2.1 2.8 0 4.1 1.8 1.1 2 2.3 2 11 0 9.2 -0.1 9.8 -2.1 9.8 -1.1 0 -3.5 -1.1 -5.2 -2.4 -3.2 -2.5 -3.2 -2.5 -3.2 3.2 0 5.7 0 5.7 -3.6 6 -2.5 0.2 -6.3 -1 -13.3 -4.3 -6.2 -2.8 -11.2 -4.5 -13.6 -4.5 -2.1 0 -4.1 -0.6 -4.3 -1.2 -0.3 -0.7 -0.6 0.1 -0.6 1.9 -0.1 1.7 -0.6 3.5 -1.3 3.9 -0.7 0.4 -5.7 1.1 -11.2 1.5 -5.9 0.4 -10.2 1.1 -10.4 1.8 -0.2 0.6 -2.7 1.1 -5.8 1.1 -4.1 0 -5.4 -0.4 -5.4 -1.5 0 -1 1 -1.5 3 -1.5 2.8 0 2.9 -0.2 1.9 -2.4 -1 -2.1 -3.5 -3.5 -6.1 -3.6 -0.5 0 -0.8 2 -0.8 4.5 0 4.5 0 4.5 -7.5 4.5 -8 0 -8.8 -0.6 -6.1 -4.6 1.2 -1.7 1.2 -2.3 -0.2 -4.2 -1.7 -2.1 -1.7 -2.1 -9.7 2.5 -4.4 2.5 -8.2 5 -8.5 5.4 -0.8 1.2 -22.8 1 -28.7 -0.3 -5.3 -1.1 -5.3 -1.1 -5.3 -5.6 0 -2.8 0.6 -5.2 1.6 -6.3 1.5 -1.6 1.5 -2 0 -4.1 -2.4 -3.4 -2.2 -15.1 0.4 -19.3 4.6 -7.5 18.7 -8.5 26.2 -1.8 2.1 1.8 2.1 1.8 1.4 -0.2 -0.5 -1.1 -1.3 -4.6 -1.9 -7.7 -0.7 -3.2 -1.6 -5.8 -2.1 -5.8 -1.2 0 -3.5 3.2 -3.6 5 0 1.2 -2.6 2 -11.2 3.3 -14.1 2.2 -18.8 2.2 -18.8 0.2 0 -0.9 -1.4 -1.7 -3.9 -2.1 -3.6 -0.6 -4 -1 -5 -5 -2.5 -9.7 -0.5 -18.9 4.1 -19.6 1.8 -0.2 2.4 -1 2.6 -3.9 0.3 -3.5 0.3 -3.6 6.5 -4.7 3.4 -0.6 8.6 -1.4 11.5 -1.8 5.2 -0.7 5.2 -0.7 5.2 -5.3 0 -2.6 0.9 -7.8 1.9 -11.6 2 -7 2 -7 -0.2 -4 -1.2 1.7 -3.4 4.3 -4.9 5.8 -1.6 1.6 -2.8 3.1 -2.8 3.4 0 0.3 -1.6 2.6 -3.6 4.9 -3.2 4 -4 4.4 -7.9 4.4 -2.4 0 -4.7 -0.4 -5 -1 -1.4 -2.3 -2.3 -0.7 -2.7 4.9 -0.2 3.3 -1 6.6 -1.7 7.5 -1.6 1.8 -7.6 2.1 -11.7 0.5 -3.7 -1.3 -7.4 0.5 -7.4 3.7 0 1.3 -0.4 3.4 -1 4.8 -0.9 2.5 -0.8 2.6 2.8 2.6 3.1 0 4.1 0.6 6 3.3 1.2 1.8 2.2 4.3 2.2 5.5 0 1.7 1.6 3 7.5 5.9 7 3.4 7.5 3.8 7.5 6.9 0 5.4 -0.8 6.4 -5.4 6.4 -2.7 0 -6.7 -1.2 -11.6 -3.6 -9.2 -4.5 -14 -5.8 -14 -3.8 0 0.7 1.1 1.6 2.5 2 2.1 0.5 2.5 1.2 2.5 4.4 0 2.2 -0.4 4.2 -1 4.5 -1.6 1 -1.2 8.5 0.4 8.5 0.8 0 3.9 -2 6.9 -4.5 5.1 -4.1 6 -4.5 11 -4.5 6.3 0 8.7 1.9 8.7 6.7 0 1.7 1.1 5.5 2.5 8.5 1.4 3 2.5 7.1 2.5 9.6 0 4.2 0 4.2 -6 4.2 -5.8 0 -6 -0.1 -7.4 -3.4 -2.3 -5.4 -5.1 -5.8 -7.6 -1 -1.1 2 -2.1 2.4 -6.1 2.4 -6.1 0 -8.8 -2.2 -9.6 -7.8 -0.5 -4 -0.7 -4.2 -4 -4.2 -2.1 0 -3.6 0.6 -3.9 1.5 -1 2.4 -7.1 1.8 -12.5 -1.2 -4.5 -2.6 -4.9 -3.1 -4.9 -6.6 0 -2.1 0.7 -5.2 1.6 -6.8 0.8 -1.7 1.4 -3.3 1.2 -3.7 -0.2 -0.4 -3.9 0.5 -8.3 2 -6.4 2.1 -7.4 2.6 -4.7 2.7 4 0.1 5.1 2.4 5.9 12.4 0.7 7.7 0.2 7.4 10.8 5.2 3.8 -0.8 8.9 -1.5 11.1 -1.5 4.5 0 5.4 1.2 5.4 7.3 0 2.7 0 2.7 -20 2.7 -16.7 0 -20 -0.2 -20 -1.4 0 -1.2 -0.8 -1.3 -3.7 -0.8 -2.1 0.4 -6.7 0.7 -10.2 0.7 -7.2 0 -6.3 0.9 -8.6 -8.9 -1 -4.5 -2.7 -1.7 -2.9 4.6 -0.1 5.3 -0.1 5.3 -4.1 5.5 -2.8 0.2 -5 -0.5 -7.2 -2z m161.2 -17.2 c1.6 -0.7 1 -1 -3 -1.4 -4.6 -0.6 -5.1 -0.9 -6.1 -4 -1.1 -3.5 -1.1 -3.5 -1.8 1.5 -0.9 6 -2.7 8.9 -6.6 10.9 -1.7 0.9 -3 2.2 -3 3 0 0.9 3.1 -0.4 9.3 -3.9 5 -2.9 10.1 -5.6 11.2 -6.1z m60.2 -5.7 c0.9 -1 3.1 -2 5 -2.4 2.7 -0.5 3.1 -0.9 2.2 -2 -0.6 -0.8 -1.7 -3 -2.3 -4.9 -1.3 -3.5 -1.3 -3.5 -10.4 3 -8.3 5.9 -9.6 6.6 -13.4 6.3 -3.8 -0.3 -4.4 -0.7 -9 -7.3 -2.7 -3.8 -6.1 -8.7 -7.4 -10.8 -1.4 -2.2 -2.8 -3.7 -3 -3.4 -0.3 0.3 0.2 2.9 1 5.8 1.8 5.8 2 10.7 0.7 12.7 -0.4 0.7 -3.4 2.1 -6.7 3.2 -3.2 1 -4.9 1.9 -3.7 1.9 1.5 0.1 2.9 1.3 4.2 3.9 1.1 2 2 3.2 2.1 2.5 0 -2.1 10.7 -7.3 15 -7.3 3.4 0 4 0.3 4.6 2.6 0.7 2.5 0.7 2.5 3.3 0 1.9 -1.8 3.8 -2.6 6.3 -2.6 3.4 0 3.9 0.4 6.5 5 2.8 5 2.8 5 3.1 0.3 0.2 -2.6 1 -5.6 1.9 -6.5z m21.5 5 c-0.7 -0.7 -1.2 -2.5 -1.2 -4 0 -2.4 -0.4 -2.8 -2.9 -2.8 -2.9 0 -2.9 0.1 -1.6 2.7 0.8 1.5 2.4 3.3 3.7 4 2.9 1.6 3.5 1.6 2 0.1z m-172.9 -8.2 c1.7 -2.6 1.3 -3.6 -1.4 -3.6 -1.9 0 -3.5 3.3 -2.4 5 1 1.6 2.2 1.2 3.8 -1.4z m180.2 -2.7 c1.1 -1.7 0 -2 -2.1 -0.4 -1.7 1.3 -1.7 1.4 -0.2 1.5 0.9 0 2 -0.5 2.3 -1.1z m-190.6 -9.6 c0.1 -2 0.7 -2.3 4.4 -2.4 2.3 0 5.1 -0.4 6.1 -0.8 1.7 -0.6 1.5 -0.9 -1.3 -2.1 -4.3 -1.7 -8.1 -6.9 -8.1 -10.8 0 -3.2 0 -3.2 5.8 -3.2 5.8 0 5.8 0 5.4 -3.2 -0.2 -1.8 0.4 -5.1 1.3 -7.2 0.9 -2.2 1.7 -6.8 1.8 -10.2 0.3 -11.3 6.6 -15.3 19.1 -12.1 5.8 1.4 5.8 1.4 3 -0.9 -1.6 -1.3 -3.2 -2.3 -3.5 -2.4 -0.4 0 -1.2 -1.4 -1.9 -3 -1.7 -4 -0.5 -10.8 2.2 -13.2 2.6 -2.2 11.4 -2.5 14.4 -0.3 2 1.3 2.4 1.1 6.3 -3.5 3.1 -3.6 3.8 -5 2.6 -5 -1 0 -3 1.4 -4.5 3 -3.7 4 -4.3 3.9 -29.3 -1.4 -1.8 -0.4 -1.7 0 1.5 4.6 1.3 1.8 1.8 4.4 1.8 8.7 0 8.4 -1.7 10.1 -10.6 10.1 -5.4 0 -6.5 0.3 -6.1 1.4 0.3 0.8 0.9 7.1 1.3 13.9 0.5 9.6 0.4 12.6 -0.6 13.2 -0.7 0.4 -4.3 1 -8.1 1.3 -5.8 0.4 -7.1 0.8 -8.4 2.8 -1.3 2 -2.4 2.4 -6.5 2.4 -4.9 0 -5 0.1 -5 3 0 2.9 0.1 3 5.1 3 4.8 0 5.1 0.1 6.6 3.8 0.8 2 2 6.5 2.6 10 1.1 6.1 2.4 6.3 2.6 0.5z m148.1 -1.8 c4.2 -2.7 4.2 -2.7 0.8 -7.8 -1.9 -2.7 -1.9 -2.7 -6.3 0.3 -2.4 1.6 -4.9 3 -5.5 3 -0.6 0 0.1 1.8 1.7 4 3.1 4.3 3.2 4.3 9.3 0.5z m18.5 -4.2 c0.7 -0.9 1 -3.4 0.7 -5.8 -0.2 -2.5 0 -4.5 0.7 -4.9 0.6 -0.4 1.1 -1.1 1.1 -1.5 0 -0.9 -17.9 -7.6 -18.5 -7 -0.3 0.4 13.7 20.8 14.4 20.9 0.2 0 0.9 -0.7 1.6 -1.7z m-40.2 -13.1 c3.6 -2.3 12.4 -8.7 13.6 -9.8 0.3 -0.2 -0.3 -1 -1.3 -1.7 -4.1 -3 -1.9 -19.3 2.7 -20.5 1.3 -0.3 1.7 -1.1 1.3 -2.6 -0.3 -1.1 -0.6 -3.3 -0.6 -4.8 0 -2.5 -0.3 -2.8 -3.7 -2.8 -4.6 0 -7.3 -2.4 -7.3 -6.4 0 -2.6 1.5 -4.7 9.6 -12.6 8.7 -8.7 9.4 -9.6 7.7 -10.8 -1.6 -1.2 -1.8 -1 -2.1 1.2 -0.2 1.6 -4.4 6.2 -12.8 14 -16 14.9 -15.7 14.9 -27.1 2.9 -8.3 -8.8 -8.3 -8.8 -7.7 -2 0.7 6.6 0.6 6.7 -1.7 6.8 -2.2 0 -2.3 0.1 -0.4 0.9 1.1 0.4 4.1 1.6 6.7 2.5 3.1 1.1 4.9 2.4 5.4 3.8 0.7 2.2 0.7 2.2 1.5 -0.1 0.9 -2.5 2.4 -2.6 15.3 -1.5 6.6 0.5 7.9 0.9 8.7 2.7 1 2.2 -1.3 30.5 -2.7 32.7 -0.8 1.4 -21.2 0.5 -22.7 -1 -0.5 -0.5 -0.8 -5.7 -0.6 -11.9 0.4 -11 0.4 -11 -2.7 -2.5 -1.8 4.6 -3.8 9 -4.4 9.8 -2.3 2.8 -13.8 1.3 -25.6 -3.2 -0.8 -0.3 -1.4 -0.1 -1.4 0.5 0 0.5 1.6 1.2 3.5 1.5 5.7 0.9 7.9 4.1 9 12.8 0.6 5.2 0.9 5.6 3 5.1 1.7 -0.3 2.5 -1.2 2.7 -3 0.2 -2.1 1.1 -2.9 4.3 -3.8 5.9 -1.8 13.5 -1.8 13.5 0 0 1 1.4 1.6 4.2 1.8 4.3 0.3 4.3 0.3 5.8 5.7 1.4 4.9 1.5 5.1 1.8 2.2 0.3 -2.4 1.3 -3.8 4.5 -5.9z m-99.3 -23.3 c0 -1.8 -0.2 -1.9 -1.5 -0.9 -0.8 0.7 -1.5 1.6 -1.5 2.1 0 0.5 0.7 0.9 1.5 0.9 0.9 0 1.5 -0.9 1.5 -2.1z m67.7 -3.6 c1.3 -3.3 1.3 -3.3 -2.2 -3.3 -2.5 0 -4.4 -0.8 -6 -2.5 -1.4 -1.3 -2.5 -2.1 -2.5 -1.7 0 0.4 -0.4 2.4 -0.9 4.4 -0.9 3.7 -0.8 3.7 3.3 5.2 5.5 2 6.7 1.7 8.3 -2.1z m91.2 -9.4 c-2.2 -1.4 -3.3 -1 -1.9 0.6 0.7 0.8 1.7 1.2 2.2 0.9 0.6 -0.4 0.5 -1 -0.3 -1.5z m-167.9 -11.3 c-1.3 -1.3 -3.5 0.7 -2.5 2.4 0.5 0.8 1.1 0.8 2.1 -0.1 1 -0.8 1.2 -1.5 0.4 -2.3z m70 -3.4 c0 -1.9 -3.7 -4.2 -7 -4.2 -3.4 0 -3.6 0.2 -3.3 2.8 0.4 2.6 0.7 2.7 5.4 2.4 2.7 -0.2 4.9 -0.7 4.9 -1z m-84.7 -7.8 c0.4 -0.7 0 -1.5 -0.9 -1.8 -1.3 -0.5 -1.5 -1.6 -1.2 -5 0.5 -3.7 0.2 -4.5 -1.3 -4.9 -1.2 -0.3 -1.9 -1.4 -1.9 -2.9 0 -3.6 -2.3 -7.8 -4.2 -7.8 -0.9 0 -2.3 -0.3 -3.2 -0.6 -2.4 -0.9 -2 1.9 0.8 6 1.3 1.9 3.3 7.3 4.4 12 1.2 4.7 2.9 9.7 3.9 11 1.8 2.4 1.8 2.4 2.3 -1.3 0.3 -2 0.9 -4.1 1.3 -4.7z m163.1 -4.9 c-0.7 -1.9 -1.4 -4.3 -1.4 -5.4 0 -1 -0.9 -2.9 -1.9 -4.2 -1.9 -2.3 -1.9 -2.3 -4 -0.5 -2 1.9 -2 1.9 -0.1 4.4 1.1 1.3 2 3.7 2 5.3 0 2.3 0.5 2.8 2.8 3.2 1.5 0.2 3 0.5 3.4 0.6 0.4 0 0 -1.5 -0.8 -3.4z m-65.4 -11.2 c2.4 -2.4 2.8 -3.2 1.3 -2.4 -1.2 0.6 -4.1 1.1 -6.6 1.1 -3.9 0 -4.5 -0.3 -6 -3.2 -1.6 -3.3 -1.6 -3.3 -1.6 2.8 -0.1 6.2 -0.1 6.2 4.7 5.7 3.7 -0.4 5.4 -1.3 8.2 -4z m44.6 -13.2 c0.5 -0.5 1.8 -1.1 2.9 -1.3 1.6 -0.3 -28.2 -8.8 -30.7 -8.8 -0.5 0 -0.8 1.9 -0.8 4.2 0 4.1 0 4.1 2.3 2 1.5 -1.5 3.6 -2.2 6.1 -2.2 3.4 0 4.5 0.7 10.9 7.7 7.2 7.6 7.2 7.6 7.8 3.4 0.3 -2.3 1 -4.5 1.5 -5z m-27.4 -21.3 c0.6 -1.6 1.8 -2.8 2.8 -2.8 1.3 0 1.7 -0.6 1.3 -2 -0.5 -1.9 -0.6 -1.9 -3.7 0.4 -3.1 2.4 -8.5 4.3 -14.1 4.9 -1.9 0.3 -1.3 0.5 1.8 0.6 4 0.1 4.7 0.4 4.7 2.1 0 1.3 0.7 2 1.9 2 1.1 0 2.3 0.6 2.8 1.3 0.5 0.8 0.9 0.4 1.1 -1.3 0.2 -1.4 0.8 -3.7 1.4 -5.2z m-29.6 1.7 c3.1 -1.4 6.9 -2.5 8.5 -2.5 1.6 0 2.9 -0.4 2.9 -1 0 -0.5 -2 -1 -4.5 -1 -4.3 0 -4.6 -0.2 -7.4 -4.6 -2.8 -4.6 -2.8 -4.6 -4 1.3 -0.6 3.2 -1.4 6.8 -1.7 8.1 -0.8 2.8 -0.7 2.7 6.2 -0.3z m93.6 -1.5 c-0.2 -1.6 -0.6 -3 -0.8 -3 -0.2 0 -0.4 1.4 -0.4 3 0 1.7 0.4 3 0.8 3 0.5 0 0.7 -1.3 0.4 -3z m-40.9 -2 c0.3 -1.1 0.2 -2 -0.2 -2 -0.3 0 -1.4 0.9 -2.4 2 -1.6 1.9 -1.6 2 0.2 2 1 0 2.1 -0.9 2.4 -2z"/>
  <path d="M262.1 128.4 c-1.9 -2 -4.5 -4 -5.8 -4.5 -6.9 -2.6 2.5 -17.9 11 -17.9 2.6 0 2.6 0 2.6 13 0 12.7 -0.1 13 -2.3 13 -1.2 0 -3.6 -1.6 -5.5 -3.6z"/>
  <path d="M0.5 81.8 c0.8 -22.9 1.2 -23.8 8.3 -23.8 5.5 0 5.9 0.3 9.2 5.3 1.4 2.1 3.1 3.5 3.8 3.2 0.8 -0.3 2.1 -0.5 3 -0.5 1.1 0 0.1 -1.4 -2.8 -3.9 -2.5 -2.1 -6.5 -6.7 -9 -10.1 -4.5 -6.2 -4.5 -6.2 -4.8 -1.9 -0.4 4.6 -2.2 6.8 -5.9 6.9 -2.3 0 -2.3 -0.1 -2.3 -15 0 -15 0 -15 3.8 -15 2.1 0 4.3 0.5 5 1.2 0.9 0.9 1.2 0.9 1.2 -0.3 0 -0.7 -1.6 -2.7 -3.5 -4.2 -3.4 -2.7 -3.5 -2.9 -3.5 -10.2 0 -7 0.1 -7.4 3.2 -10 2.9 -2.5 3.8 -2.7 9.9 -2.3 7.9 0.4 10.9 2.8 10.9 8.4 0 3.1 0.2 3.3 3.8 3.6 3.6 0.3 3.7 0.4 4 4.7 0.3 3.6 -0.1 4.8 -2.5 7.4 -4.2 4.4 -11.3 8.7 -14.6 8.7 -2.5 0 -2.8 0.2 -1.7 1.5 0.8 0.9 2.9 1.5 5.6 1.5 7.8 0 11.1 2.9 10.2 9.1 -0.2 1.4 0.5 3.3 1.6 4.4 2.8 3 5.6 9.6 5.6 13.3 0 3.1 -0.1 3.2 -4.4 3.2 -3.8 0 -4.3 0.3 -3.9 1.9 0.2 1 1.5 2.3 2.9 2.9 1.3 0.6 3.7 3.3 5.4 5.9 2.6 4.2 3 5.7 3 12.1 0 11.8 1.2 11.2 -22.1 11.2 -20.1 0 -20.1 0 -19.4 -19.2z m12.9 -1.3 c2.6 -2 2.4 -4.9 -0.6 -7.3 -2.8 -2.4 -2.8 -2.4 -2.8 2.6 0 2.7 0.3 7.1 0.8 9.8 0.7 4.9 0.7 4.9 1 0.4 0.2 -2.5 0.9 -4.9 1.6 -5.5z m14.8 2.3 c-0.9 -0.9 -1.5 -0.9 -2.4 0 -0.9 0.9 -0.7 1.2 1.2 1.2 1.9 0 2.1 -0.3 1.2 -1.2z"/>
  <path d="M83.1 36 c-5.1 -4.7 -5.5 -5.4 -5.9 -10.5 -0.2 -3 -0.7 -5.5 -1.1 -5.5 -0.4 0 -7.4 1.4 -15.6 3 -8.3 1.7 -16.1 3 -17.5 2.8 -2.3 -0.3 -2.6 -1.1 -4.7 -10.3 -3.8 -17.1 -5.9 -15.5 20.1 -15.5 25.7 0 23.4 -1 24.3 10.8 0.6 8 0.7 8 7.8 5.8 4 -1.3 4 -1.3 -0.2 -2.5 -4.3 -1.2 -4.3 -1.2 -4.3 -5.9 0 -4.8 0 -4.8 6.4 -6.5 8.2 -2.2 13.2 -2.2 14 -0.1 1.3 3.4 0.6 7.3 -1.6 8.8 -3.5 2.5 -1.6 2.8 4.7 0.6 3.2 -1.1 7.5 -2 9.7 -2 3.8 0 3.8 0 3.8 7.3 0 7.1 -1.7 14.8 -3.5 16.6 -1.5 1.4 -21.1 7.2 -26.3 7.7 -4.5 0.5 -4.9 0.4 -10.1 -4.6z m-22.8 -25.7 c0.4 -0.2 0.7 -1.6 0.7 -3 0 -2.4 -0.2 -2.5 -3.7 -1.9 -7.6 1.4 -8 1.7 -6.7 5.1 0.5 1.3 1.5 1.5 4.8 1 2.2 -0.4 4.4 -0.9 4.9 -1.2z"/>
  <path d="M111.5 6 c-0.3 -1.1 -1.1 -2 -1.6 -2 -0.5 0 -0.9 -0.9 -0.9 -2 0 -1.8 0.7 -2 5.5 -2 5.5 0 5.5 0 5.5 4 0 4 0 4 -3.9 4 -3.1 0 -4.1 -0.4 -4.6 -2z"/>
 </g>
 <g fill="#e8e8e8">
  <path d="M0 182.5 c0 -2.5 0.3 -4.5 0.6 -4.5 0.3 0 2.6 1.4 5.1 3.1 5.1 3.6 6.9 2.9 5.2 -1.8 -1 -2.9 -0.7 -3.7 4 -10.5 2.8 -4.1 5.1 -8.1 5.1 -9.1 0 -1 -3.8 -4.2 -10 -8.2 -10 -6.6 -10 -6.6 -10 -13.7 0 -6.7 0.1 -7 1.8 -5.7 0.9 0.8 3.1 2.1 4.7 2.9 1.7 0.8 3.5 2.1 4.1 2.9 0.9 1.2 1.7 1 4.8 -1.4 6.6 -5 9.6 -11.5 5.4 -11.5 -0.7 0 -2.1 -1.9 -3.1 -4.3 -0.9 -2.4 -3.8 -6.3 -6.2 -8.7 -3.7 -3.6 -5.1 -4.4 -8 -4.3 -3.5 0.1 -3.5 0.1 -3.5 -4.8 0 -4.9 0 -4.9 6.6 -4.9 6.2 0 6.5 -0.1 6.2 -2.2 -0.2 -1.5 -1.1 -2.4 -2.4 -2.6 -2.6 -0.4 -3.2 -4.2 -3.5 -19.7 -0.2 -9.1 0 -10 1.7 -10.2 1.2 -0.2 2.9 1.1 4.7 3.7 3 4.5 6.6 6.3 10.3 5.4 1.4 -0.4 2.4 -0.2 2.4 0.5 0 0.6 -0.4 1.1 -0.9 1.1 -1.8 0 -7.1 5.2 -7.1 7 0 1 -0.7 2.1 -1.5 2.4 -1.3 0.5 -1.5 2 -1.3 7.3 0.3 6.8 0.3 6.8 11 7.1 12.4 0.3 12.9 0 12.4 -8.4 -0.3 -5.7 -4.3 -12.9 -8.1 -14.6 -1.4 -0.6 -2.5 -1.6 -2.5 -2.3 0 -2.2 -2.2 -3.5 -4.2 -2.4 -3.1 1.7 -6.2 0.3 -8.8 -4.1 -3.1 -5 -6.6 -6.2 -9.2 -3 -1.4 1.8 -1.8 4 -1.8 11.5 0 12.2 -0.9 18.5 -2.6 18.5 -1.1 0 -1.4 -3.7 -1.4 -19.3 0 -19.4 0 -19.4 2.5 -20.7 3.1 -1.7 3.1 -2.4 0 -7.9 -2.4 -4.2 -2.5 -4.8 -2.5 -24.7 0 -20.4 0 -20.4 19.3 -20.4 19.3 0 19.3 0 21.8 11.3 1.4 6.1 2.9 11.2 3.4 11.1 0.6 -0.1 8.8 -1.6 18.4 -3.5 19.3 -3.8 17.7 -2.2 15.5 -15.2 -0.7 -3.8 -0.7 -3.8 17.9 -3.6 10.3 0.1 18.5 0.5 18.2 0.9 -0.7 1.2 0.5 4 1.7 4 0.6 0 0.8 -1.1 0.6 -2.5 -0.5 -2.5 -0.5 -2.5 16.3 -2.5 16.8 0 16.8 0 19.9 5.6 1.8 3 3.9 5.8 4.8 6.1 0.8 0.4 3.7 -0.6 6.4 -2.1 5.3 -3 7 -3 3.8 -0.1 -4.1 3.7 -1.9 6.3 3.8 4.4 5.2 -1.6 10.2 -5.6 10.2 -8.1 0 -1.8 -0.4 -2 -3.5 -1.5 -4.5 0.7 -4.5 -0.5 0 -2.6 2.9 -1.4 12.5 -2.5 12.5 -1.4 0 0.1 -0.6 2.5 -1.4 5.4 -1.6 6.1 -1.1 6.9 5.2 7.9 3.8 0.6 4.1 0.5 4.7 -1.9 0.6 -2.3 0.9 -2.4 4.3 -1.5 2 0.5 4 1.3 4.4 1.6 0.3 0.4 0.1 3 -0.5 5.9 -1.2 5.1 -1.2 5.1 -10.2 2.7 -4.9 -1.3 -9.7 -2.3 -10.6 -2.4 -1.5 0 -3.9 3.8 -3.9 6.3 0 0.8 6.2 3 16.5 5.7 9 2.4 16.8 4.3 17.2 4.2 0.4 0 1.7 -3.5 2.8 -7.6 1.1 -4.2 2.5 -7.6 3.1 -7.6 1.4 0 3.5 -6.8 2.3 -7.6 -0.5 -0.3 -0.9 -1.4 -0.9 -2.4 0 -2.5 -0.7 -2.9 -12.4 -6.1 -10.1 -2.8 -10.1 -2.8 24.2 -2.8 34.2 -0.1 34.2 -0.1 34.2 20.3 0 20.4 0 20.4 -3.1 17.5 -4 -3.7 -9.8 -5.3 -14.6 -4 -9.5 2.7 -13 13.4 -4.4 13.9 3 0.1 4 1.1 2.1 2.2 -0.8 0.5 -2.3 1.5 -3.4 2.3 -1.8 1.3 -1.8 1.4 0.5 3.5 1.2 1.2 3.1 2.2 4.1 2.2 1 0 1.8 0.7 1.8 1.5 0 0.8 0.9 1.9 2 2.5 1.5 0.8 3.1 0.3 8.2 -3.1 6.3 -4 6.3 -4 6.6 14.7 0.1 11.8 -0.1 19.1 -0.8 19.8 -1.3 1.3 -1.3 4.6 0 4.6 0.6 0 1 2.2 1 5 0 4.4 -0.3 5.1 -2.8 6.4 -3.1 1.6 -7.9 6.1 -9.3 8.8 -0.8 1.5 -0.5 2 1.3 2.7 1.3 0.5 4.3 2.8 6.6 5.2 4.1 4.3 4.2 4.5 4.2 11.5 0 6.7 -0.1 7.2 -2 6.7 -1.5 -0.4 -3 1.1 -7.2 7.6 -3.9 6.1 -5.8 8.1 -7.4 8.1 -2.8 0 -5.4 1 -5.4 2 0 0.5 5 4.1 11 8.1 11 7.3 11 7.3 11 12.2 0 4.8 0 4.8 -44.1 4.6 -27.5 -0.1 -43.6 -0.5 -42.5 -1.1 0.9 -0.5 1.6 -1.6 1.6 -2.5 0 -2.7 -8.1 -16.3 -9.7 -16.3 -0.8 0 -4.5 1.6 -8.1 3.6 -21.1 11.5 -20.2 10.7 -18.2 14.5 1 1.8 0.6 1.9 -16 1.9 -17 0 -17 0 -17 -2.7 0 -1.6 -1.2 -5.3 -2.7 -8.3 -1.4 -3 -2.5 -6.8 -2.4 -8.3 0.3 -3.5 -2.4 -6.7 -5.6 -6.7 -1.4 0 -4.8 1.9 -8 4.5 -3 2.5 -6.5 4.5 -7.8 4.5 -3.2 0 -4.8 2.3 -4 6 1.2 5.5 7.2 7.9 9.4 3.6 0.7 -1.3 3.1 -3.3 5.4 -4.4 4.1 -2.1 4.1 -2.1 5.3 0.1 2.8 4.9 5.4 10.1 5.4 10.9 0 0.4 -7.6 0.8 -16.9 0.8 -16.9 0 -16.9 0 -17.5 -3.5 -0.4 -1.9 -1.2 -3.5 -1.9 -3.5 -0.7 0 -9 1.6 -18.4 3.5 -16.2 3.3 -18.4 3.5 -36.8 3.5 -19.5 0 -19.5 0 -19.5 -4.5z m141.3 1.3 c0.6 -2.1 -0.4 -4.8 -1.9 -4.8 -0.9 0 -1.4 -1.1 -1.4 -2.9 0 -2.3 0.5 -3 2.9 -3.4 7.2 -1.5 11.6 -10.2 8.7 -17.1 -2.6 -6.3 -10.3 -9.5 -16.7 -7 -9.1 3.7 -10.7 16.4 -2.7 22.2 1.4 1.1 1.5 1.7 0.6 3.8 -0.6 1.3 -1.7 2.3 -2.4 2 -1.5 -0.6 -3.4 1.3 -3.4 3.5 0 1.2 1.7 2 6.8 3.2 8.6 1.9 8.9 1.9 9.5 0.5z m115.2 -2.9 c0 -1.9 -1.7 -3.3 -8.9 -7.6 -6.1 -3.6 -9.4 -6.2 -10.4 -8.3 -1.3 -2.6 -1.8 -2.9 -4.6 -2.4 -4.1 0.7 -6.6 3.1 -6.6 6.3 0.1 4 2.2 6.1 6.2 6.1 2.1 0 7.4 1.8 12.9 4.4 5.2 2.5 9.9 4.3 10.4 4.2 0.6 -0.1 1 -1.3 1 -2.7z m-218 -0.2 c11 -2.3 11 -2.3 10.8 -6.9 -0.2 -2.5 -0.7 -5.7 -1.2 -7 -0.9 -2.5 -0.9 -2.5 -10.8 -0.6 -12.3 2.3 -17.3 3.7 -17.3 4.6 0.1 1 2 9.4 2.5 11 0.6 1.7 3.3 1.5 16 -1.1z m181.5 -1.3 c0.8 -0.8 0 -2.9 -2.6 -7.2 -2 -3.4 -3.9 -6.2 -4.3 -6.2 -1.3 0 -5.8 5.4 -8.1 9.8 -2.7 4.8 -4.1 5.2 -6.3 1.8 -1.5 -2.2 -1.4 -2.7 0.2 -5.9 2.9 -5.7 1.2 -6.8 -5.1 -3.3 -2.9 1.6 -5.7 3.3 -6.2 3.7 -1.6 1.4 0.5 2.8 4.7 3.1 3 0.2 4.2 0.8 5.3 2.9 0.7 1.5 1.8 2.9 2.4 3.1 2.1 0.7 19 -0.8 20 -1.8z m-145.5 -12.4 c2.2 -3.3 4.4 -6 4.8 -6 1.3 0 -0.3 4.3 -2.6 6.8 -2 2.2 -2 2.2 0.1 2.2 3.2 0 6.2 -4.6 6.2 -9.6 0 -2.3 0.5 -4.6 1 -4.9 1.7 -1 1.1 -2.3 -1.4 -2.9 -1.3 -0.3 -2.6 -1.4 -2.9 -2.5 -0.8 -3.1 -3.9 -4.2 -7.1 -2.6 -1.9 1 -3.3 1.2 -4.6 0.5 -1.5 -0.8 -1.8 -0.4 -2.3 2.4 -0.3 1.8 -1.7 6.4 -3.2 10 -1.5 3.7 -2.5 6.9 -2.3 7 1.1 0.9 9.4 5.6 9.8 5.6 0.3 0 2.3 -2.7 4.5 -6z m99.4 -6.9 c5.7 -1.6 10.7 -3.5 11.2 -4.2 0.9 -1.6 0.8 -2.1 -3.5 -16.8 -3.2 -10.6 -3.2 -10.6 -7.1 -10.6 -3.1 0 -4.1 -0.4 -4.3 -1.8 -0.3 -1.6 -1 -1.8 -3.9 -1.2 -6.5 1.2 -8.3 2.3 -8.3 5 0 2.2 -0.9 2.9 -3.2 2.7 -0.3 -0.1 -1.1 0.5 -1.8 1.3 -0.9 1.1 -0.4 3.9 1.9 12.7 3.9 14.2 4.6 15.8 6.9 15.8 1 0 6.5 -1.3 12.1 -2.9z m-129.6 -3.6 c6.2 -2 11.8 -3.9 12.5 -4.4 2.4 -1.5 -2.3 -17.1 -5.2 -17.1 -0.8 0 -3.5 0.6 -5.8 1.4 -2.4 0.8 -7.4 2.4 -11.3 3.6 -9.4 2.9 -9.8 3.5 -7.2 11.8 2.1 6.4 3.2 8.2 5 8.2 0.5 0 5.9 -1.6 12 -3.5z m171.7 -3.7 c4.9 -3.5 8.9 -6.6 9 -6.9 0 -0.5 -9.3 -14 -15.7 -22.7 -2.4 -3.2 -2.4 -3.2 -6.6 -0.2 -2.3 1.7 -6.6 4.6 -9.4 6.5 -2.9 1.9 -5.3 3.8 -5.3 4.2 0 0.5 1.8 3.4 4 6.5 2.2 3.2 5.6 8.1 7.6 11 5 7.2 5.5 7.8 6.6 7.8 0.5 0 4.9 -2.8 9.8 -6.2z m34.8 -1.8 c5 -3.3 9.4 -6.5 9.7 -7.1 0.9 -1.4 -1.4 -3.9 -3.6 -3.9 -1.5 0 -1.7 -0.5 -1.3 -2.9 0.7 -3.5 -1.9 -7.9 -5.2 -8.7 -1.6 -0.4 -3.6 0.3 -6.7 2.5 -3.6 2.5 -4.6 2.8 -5.1 1.6 -0.7 -1.8 -3 -1.9 -4.4 -0.2 -1.4 1.6 1 6.8 5.1 10.9 2.3 2.2 3.6 2.8 5.4 2.3 1.6 -0.4 2.2 -0.2 1.8 0.5 -1.1 1.8 -5.3 1.1 -8.3 -1.5 -3.5 -3 -4.8 -3.1 -6.1 -0.7 -2.1 3.9 3.4 13.2 7.8 13.2 1 0 5.9 -2.7 10.9 -6z m-140.4 -0.6 c0.8 -2.1 1.4 -1.6 -7.2 -5.9 -5.6 -2.8 -7.2 -4 -7.2 -5.7 0 -2.6 -4 -8.8 -5.7 -8.8 -1.8 0 -1.6 2.5 0.2 4 0.8 0.7 1.5 1.9 1.5 2.6 0 0.9 -2.2 0.2 -7.2 -2.3 -5.1 -2.7 -8.6 -3.8 -12.5 -4 -5.4 -0.2 -5.4 -0.2 -3.2 2.9 2.2 3 16.7 10.8 20.2 10.8 0.9 0 5.3 1.8 9.8 4 9.3 4.5 10.4 4.7 11.3 2.4z m19.5 -10.1 c5.8 -0.9 10.8 -1.8 11 -2 0.2 -0.1 -0.2 -0.9 -0.9 -1.8 -1 -1.2 -1 -1.5 0.4 -1.5 0.9 0 1.9 -0.7 2.2 -1.5 0.4 -0.8 1.5 -1.5 2.6 -1.5 1.7 0 1.9 -0.5 1.2 -4.7 -1.2 -8.3 -3.9 -11.7 -9 -11.6 -2.8 0.1 -3.4 -0.3 -3.4 -2 0 -4.1 -1 -4.4 -8.5 -3.1 -3.8 0.7 -7.8 1.3 -8.9 1.3 -1.6 0.1 -1.8 0.7 -1.3 3.6 0.5 3.3 0.4 3.6 -2.4 4.2 -4.7 0.9 -6.6 5.6 -5 12.7 1.2 5.4 1.2 5.4 5.6 6 3.3 0.5 4.3 1.1 3.8 2.2 -0.7 1.8 -0.4 1.8 12.6 -0.3z m-87.9 -9.7 c0.9 -1.2 0.3 -2.9 -3.1 -8.7 -2.4 -4 -4.6 -9 -4.9 -11.3 -0.4 -3.3 -1 -4.2 -3.2 -5 -4.4 -1.6 -7.8 0.6 -7.8 4.9 0 2.8 0.5 3.8 2.5 4.7 1.4 0.6 5.1 4.7 8.1 9 3 4.3 5.8 7.8 6.3 7.8 0.5 0 1.4 -0.7 2.1 -1.4z m199.6 -6 c2.3 -1.6 5 -8.7 4.1 -10.9 -0.3 -0.8 -3.6 -2.6 -7.4 -4 -3.7 -1.4 -12.2 -4.7 -18.7 -7.2 -6.6 -2.5 -12.5 -4.4 -13 -4.2 -0.6 0.3 -1.9 2.5 -2.8 5.1 -2.8 7.7 -2.1 8.5 13.9 14.5 7.6 2.9 15.4 5.8 17.3 6.6 4.4 1.8 4.2 1.8 6.6 0.1z m-156.8 -2.4 c0.5 -1.6 0.8 -4 0.5 -5.3 -0.3 -2 0.3 -2.7 3.6 -4.3 3.7 -1.7 4.1 -1.8 9.1 -0.1 4.7 1.6 5.3 1.6 6.8 0.2 0.9 -0.9 1.6 -3.4 1.6 -5.9 0.1 -4.3 0 -4.3 -5.5 -7.1 -6.6 -3.3 -13 -3.8 -15.9 -1.2 -2.4 2.2 -4.4 8 -3.5 10.3 0.3 0.9 0.5 1.7 0.3 1.8 -0.2 0 0.4 0.9 1.2 1.8 1.2 1.6 1.2 2 -0.6 3.4 -2.4 2 -4.3 6.2 -3.7 8 0.3 0.6 1.5 1.2 2.8 1.2 1.6 0 2.6 -0.8 3.3 -2.8z m-30.3 -1.6 c1.3 -2 2.6 -2.4 8.6 -2.8 3.9 -0.3 7.5 -1 8.1 -1.6 1.2 -1.2 -0.5 -22.9 -1.9 -24.3 -1.2 -1.2 -19.4 0.8 -20.9 2.3 -1.1 1.1 -1.2 2.9 -0.5 8.3 0.8 6.2 0.7 7.3 -1 9.7 -2.1 3.1 -2.5 7.8 -0.7 9.6 2.1 2.1 6.6 1.4 8.3 -1.2z m137 -4.6 c1.4 -2.2 3.1 -26.1 2 -27.5 -0.5 -0.7 -4.4 -1.6 -8.8 -1.9 -7.6 -0.7 -7.7 -0.7 -8.7 1.9 -0.5 1.4 -1.1 8 -1.2 14.8 -0.3 12.2 -0.3 12.2 3.7 12.8 6.7 1 12.3 1 13 -0.1z m-30.1 -6.2 c1.7 -2.6 7.6 -18.3 7.6 -20.1 0 -2.6 -2.1 -4 -10.1 -6.8 -9.2 -3.2 -13.1 -3.6 -15.1 -1.5 -0.8 0.7 -2.5 5.6 -3.8 10.9 -3.2 12.7 -2.7 13.7 7.7 17.1 9.7 3.1 11.9 3.2 13.7 0.4z m100.1 -17 c4.5 -8.2 7.3 -14.4 6.6 -14.6 -0.6 -0.2 -1.1 -0.9 -1.1 -1.7 0 -1.3 -4.9 -3.8 -6.6 -3.4 -1.6 0.4 -4.4 -1.3 -4.4 -2.5 0 -0.7 -1.1 -1.8 -2.5 -2.4 -3.3 -1.5 -3.8 -1.5 -2.9 0.1 0.5 0.8 0.2 0.7 -1 -0.2 -2.2 -1.8 -3.1 -0.9 -7.5 7.2 -7.8 14.4 -9.4 17.3 -10.3 18.4 -1.3 1.6 -0.5 2.7 3.9 5.1 2.1 1.1 6.7 3.6 10.3 5.5 3.5 2 6.7 3.4 7.1 3.1 0.4 -0.2 4.2 -6.8 8.4 -14.6z m-139.3 4.1 c1.8 -2.3 3.2 -4.8 3 -5.5 -0.2 -0.8 0.4 -1.4 1.2 -1.4 0.8 0 3.8 -3 6.7 -6.7 5.2 -6.7 5.2 -6.7 0.3 -11 -2.7 -2.3 -5.6 -4.2 -6.4 -4.2 -1.6 0 -9.5 9.3 -10.7 12.7 -0.8 2.1 -0.9 2.1 -5.2 -1.3 -4.3 -3.5 -6.4 -4.1 -9.5 -2.9 -2.9 1.1 -1.6 2.1 2.4 1.9 2.2 -0.1 4.3 0.1 4.6 0.6 0.3 0.5 -0.3 0.6 -1.3 0.2 -1.6 -0.6 -1.6 -0.5 -0.4 1 0.7 0.9 1.8 1.4 2.3 1.1 0.5 -0.4 0.8 0.4 0.6 1.7 -0.1 1.3 -0.8 2.4 -1.5 2.4 -0.6 0 -1.5 0.3 -1.9 0.8 -0.4 0.4 -0.1 0.7 0.6 0.7 0.7 0 1.1 0.3 0.8 0.6 -0.4 0.3 -2 -0.2 -3.7 -1.1 -3.2 -1.6 -4 -4.2 -1.8 -6.4 1 -1.1 0.9 -1.3 -0.3 -0.9 -0.8 0.3 -1.8 1.8 -2.2 3.4 -0.7 2.9 -0.7 2.9 -0.4 -0.3 0.1 -1.8 -0.1 -3.3 -0.5 -3.3 -1.2 0 -1.6 4.3 -0.6 6.5 1 2.3 17.6 15.5 19.4 15.5 0.7 0 2.7 -1.9 4.5 -4.1z m95.4 -7.7 c4.4 -2.8 10.9 -10.1 12.7 -14 1.5 -3.2 -1.1 -5.6 -6 -5.6 -3.7 0 -3.8 -0.1 -3.5 -3.1 0.2 -2 -0.3 -3.9 -1.6 -5.5 -2 -2.5 -2 -2.5 -12.1 7.5 -9.6 9.5 -10 10 -8.3 11.8 1.2 1.4 2.7 1.8 5.8 1.5 3.5 -0.3 4 0 3.6 1.4 -0.2 1 -0.1 3.4 0.2 5.3 0.9 4.4 3.4 4.6 9.2 0.7z m-132.6 -3.2 c2.9 -2.9 2.5 -7.4 -1 -12.6 -3.7 -5.3 -6.2 -6.7 -10.1 -5.9 -2.6 0.6 -2.9 0.4 -2.9 -1.8 0 -2.3 -2.6 -4.5 -3.8 -3.2 -0.3 0.2 0.3 0.7 1.2 1.1 1.9 0.7 2.1 5.1 0.4 8.9 -1.3 3 0.1 6.9 4.7 12.3 3.2 3.9 8.3 4.4 11.5 1.2z m21.8 -3.1 c0.4 -1.9 -2.7 -3.4 -4.1 -2 -1.4 1.4 0 4.3 2 3.9 1 -0.2 1.9 -1 2.1 -1.9z m-46.2 -0.3 c1.9 -1.4 1.9 -1.5 -0.4 -4.6 -1.3 -1.7 -3.2 -6.9 -4.4 -11.6 -1.1 -4.7 -3.1 -10 -4.4 -11.9 -1.2 -1.8 -2.4 -4.4 -2.6 -5.6 -0.5 -3.3 -2.5 -3.4 -4.1 -0.2 -2.2 4.1 -0.8 9.8 4.1 17.7 3.1 4.7 4.3 8 4.8 12.1 0.6 4.8 1 5.5 2.8 5.5 1.2 0 3.1 -0.6 4.2 -1.4z m133.7 -16 c6.4 -6 11.7 -11.4 11.7 -11.9 0 -0.5 -3 -4 -6.6 -7.7 -3.6 -3.8 -7.3 -7.8 -8.1 -9 -0.8 -1.1 -2.1 -2 -2.8 -1.8 -1.8 0.4 -25.7 22.8 -25.3 23.8 0.9 2.3 17.4 18.8 18.2 18.3 0.6 -0.4 6.4 -5.6 12.9 -11.7z m-36 3.7 c-0.9 -10.1 -1.2 -11.1 -3.3 -10.6 -1.1 0.3 -2 1.2 -2 2 0 2.1 -3.2 5 -6.2 5.5 -4.7 0.9 -5.1 -1.2 -1.8 -7.8 1.6 -3.2 3 -7.4 3 -9.1 0 -3.3 0 -3.3 -5.7 -3.3 -9.1 0 -10.6 0.7 -9.9 4.4 0.3 1.7 1.5 4.2 2.6 5.6 1.1 1.4 3.2 4.6 4.7 7.2 2.6 4.5 3 4.8 7 4.8 3.5 0 4.6 0.5 6.5 3 1.2 1.7 2.9 3 3.9 3 1.4 0 1.6 -0.8 1.2 -4.7z m-46.8 -2.3 c0.3 -0.5 -0.2 -1 -1.2 -1.1 -1.6 -0.1 -1.6 -0.2 0.2 -0.8 1.1 -0.4 3.1 -1.2 4.5 -1.8 1.4 -0.6 3.3 -1.4 4.4 -1.7 1.3 -0.5 1.7 -1.3 1.3 -3.1 -0.3 -2 0 -2.7 1.9 -3.1 1.3 -0.3 2.1 -1.1 1.8 -1.6 -0.4 -0.5 -1.5 -0.8 -2.5 -0.5 -1.4 0.4 -2 -0.1 -2.5 -2.1 -1.9 -9.1 -5.3 -9.9 -22.1 -5.5 -4.3 1.1 -6.7 2.3 -7.8 3.9 -0.9 1.3 -2.1 2.4 -2.8 2.4 -1.8 0.1 -4.9 6.7 -3.4 7.4 0.7 0.2 0.4 0.5 -0.5 0.5 -2 0.1 -2.5 2.1 -0.5 2.2 1.3 0.1 0.9 0 16.2 3.3 13.5 2.9 12.3 2.8 13 1.6z m125 -10.2 c0 -5.6 -0.5 -9 -1.3 -10.1 -1 -1.2 -1.1 -2.1 -0.2 -3.6 2.5 -4.7 -2.6 -10.5 -7.1 -8.1 -2.6 1.5 -2.4 1.7 1 1.2 1.6 -0.2 3.2 0.1 3.6 0.9 0.5 0.8 0.4 1 -0.3 0.5 -0.7 -0.4 -1.2 -0.3 -1.2 0.3 0 0.5 0.9 1.3 2 1.6 1.6 0.5 1.8 1 1 2.5 -0.6 1 -1 4.5 -1.1 7.7 -0.1 5.8 -0.1 5.8 -1.3 0.8 -1.1 -4.6 -1.4 -5 -4.1 -5 -1.7 0.1 -4.2 0.4 -5.8 0.8 -2.3 0.6 -2.9 0.4 -3.7 -1.5 -0.5 -1.4 -0.9 -1.7 -0.9 -0.7 -0.1 0.8 0.4 2 0.9 2.5 0.8 0.8 0.6 1.5 -0.5 2.4 -2.5 2.1 -4.9 0 -5.3 -4.4 -0.3 -3.3 -0.1 -3.6 2 -3.3 2.7 0.5 10.8 -2.1 10.8 -3.4 0 -0.5 -1.6 -0.2 -3.6 0.6 -2 0.8 -4.9 1.5 -6.5 1.5 -3.7 0 -5.2 2.7 -3.8 6.9 1.6 4.5 4.5 5.8 7.2 3.3 3.1 -2.7 11.6 -5.5 10.3 -3.3 -0.4 0.5 0 2.2 0.8 3.8 0.8 1.5 2.3 5.6 3.3 9.1 1 3.4 2.2 6.1 2.8 5.9 0.6 -0.2 1 -4.1 1 -8.9z m-201.6 3.5 c-1.6 -4.3 -4.8 -8.4 -10 -13 -3.6 -3.1 -4.4 -4.3 -3.3 -4.7 0.9 -0.3 2.4 -0.1 3.4 0.4 2.6 1.4 4 1.2 3.4 -0.4 -0.9 -2.3 -5.6 -3.7 -10.7 -3.2 -2.6 0.3 -4.5 0.1 -4.2 -0.3 0.6 -1.1 -8 -9.6 -9.7 -9.6 -0.7 0 -1.4 0.8 -1.6 1.8 -0.3 1.2 1.5 3.7 5 7 3 2.9 7.5 8 10.2 11.4 5.5 7.3 12.9 13.3 16.2 13.3 2.1 0 2.3 -0.2 1.3 -2.7z m37.1 -11.3 c1.4 -6.8 0.8 -18.4 -1.2 -20.7 -2.4 -3 -26.4 1.2 -27.6 4.7 -0.2 0.6 -2.4 1 -4.9 1 -6.4 0 -4.7 1.1 2.2 1.4 3.1 0.2 6.1 0.8 6.7 1.4 0.6 0.6 1.7 0.8 2.4 0.5 0.8 -0.3 2.2 0.5 3.2 1.8 1.4 1.6 2.8 2.2 5.5 2.1 3 -0.1 3.7 0.2 3.7 1.8 0 1 0.5 2.2 1 2.5 0.6 0.3 1 2 1 3.7 0 2.1 0.6 3.1 2 3.5 1.1 0.3 2 0.9 2 1.4 0 0.5 0.6 0.9 1.4 0.9 0.8 0 1.8 -2.2 2.6 -6z m93.5 -4.4 c3 -1.4 5.5 -3.1 5.5 -3.8 0 -0.7 1.3 -2.1 3 -3 2.6 -1.5 2.9 -2.2 2.8 -6.2 -0.1 -4.8 -1.7 -7.2 -4.3 -6.2 -2.2 0.8 -1.8 3 0.8 4.1 3.3 1.5 3.5 5.8 0.2 7.3 -3.6 1.7 -4.1 1.5 -2.1 -0.7 1.7 -1.8 1.6 -2.1 -0.6 -6.1 -1.7 -3.1 -2 -4.4 -1 -4.7 2.1 -0.8 1.4 -4.3 -0.8 -4.3 -3.4 0 -3.4 2.7 -0.1 8 2.9 4.7 3.3 7 1.2 7 -0.4 0 -2.4 -3.6 -4.4 -7.9 -2 -4.4 -4 -8.2 -4.5 -8.5 -1.3 -0.8 -13.2 4.5 -13.2 5.8 0 2.4 9.4 21.6 10.6 21.6 0.8 0 3.8 -1.1 6.9 -2.4z m-25.4 -10.3 c0.6 -2 1.3 -6.7 1.4 -10.3 0.2 -3.6 1 -9.4 1.8 -12.9 0.9 -3.6 1.4 -6.8 1.1 -7.2 -0.8 -1.4 -7.5 -3.1 -9.8 -2.5 -2.6 0.6 -3.6 3.8 -3.6 11.6 0 2.6 -0.7 6.2 -1.6 7.9 -0.9 1.8 -1.7 6 -1.8 9.4 -0.1 6.2 -0.1 6.2 3.9 6.8 7.2 1.1 7.3 1.1 8.6 -2.8z m-45 1.4 c4.5 -0.9 20.4 -5.9 21.4 -6.8 2.4 -2.3 4.9 -17.9 2.8 -17.9 -2 0 -11.3 3.5 -11.3 4.3 0 1.3 3.3 6.7 4.1 6.7 0.3 0 1.6 0.9 2.9 2 2 1.8 2.2 2.2 0.9 3.4 -1.5 1.5 -10.8 4 -11.6 3.2 -0.3 -0.3 0 -1.9 0.6 -3.7 1.4 -4.1 1.4 -11.9 0 -11.9 -0.6 0 -1.9 0.4 -2.9 1 -1.5 0.8 -1.9 0.5 -2.4 -1.6 -0.8 -3.2 0.1 -6.3 2.5 -8.3 1.2 -1 1.6 -2.1 1 -2.9 -1.3 -2.1 -14.1 1.6 -14.1 4 0 1 0.5 1.9 1 1.9 4.5 0.6 6.9 2.1 7.9 4.9 0.9 2.7 0.8 3 -1.5 3.6 -3.7 0.9 -3 3.9 2.1 8.7 2.5 2.4 4.5 4.6 4.5 5 0 1.1 -11.2 3.9 -12.2 2.9 -0.5 -0.5 -0.4 -2.1 0.3 -3.8 1 -2.7 1.5 -10.2 0.6 -11 -0.2 -0.2 -2.9 0.4 -6.1 1.3 -5.4 1.5 -5.7 1.8 -5.1 4.2 0.6 2.5 10.3 12.3 11.5 11.6 0.4 -0.2 1.7 -0.6 3.1 -0.8z m-73 -8.6 c6 -3.9 10.3 -8.6 9.6 -10.5 -0.4 -1 -1.9 -1.6 -4.2 -1.6 -3.3 0 -3.5 -0.2 -3.5 -3.3 0 -4.6 -3 -7.8 -7.7 -8.4 -3.2 -0.4 -4.5 0 -7.1 2.2 -2.7 2.2 -3.2 3.4 -3.2 6.9 0 4.5 2.9 8.4 6.6 9.1 1.1 0.1 1.7 0.9 1.5 1.6 -0.2 0.8 -0.6 2.6 -0.9 4.2 -0.4 2.3 -0.1 2.7 2 2.7 1.3 0 4.4 -1.3 6.9 -2.9z m230.9 -3.4 c11.5 -1.2 11.5 -1.2 11.2 -9.6 -0.4 -9.9 -1.3 -12.3 -4.5 -11.6 -1.2 0.2 -5.8 0.7 -10.2 0.9 -4.4 0.2 -8.8 0.7 -9.7 1.1 -1.1 0.4 -1.8 0.3 -1.8 -0.4 0 -2 -4.9 -1.2 -6.1 1.1 -1.3 2.5 -0.4 17.4 1.2 19.4 0.6 0.7 2.5 1 4.7 0.7 2 -0.2 8.9 -1 15.2 -1.6z"/>
  <path d="M130.7 181.7 c-5 -1.1 -5.7 -2.7 -1.7 -3.7 2.8 -0.7 5.4 -7 3.1 -7.8 -2.3 -0.8 -5.1 -4.5 -5.7 -7.8 -1.4 -7.4 5.2 -14.1 12.9 -13.1 5.7 0.8 8.9 4.3 9.4 10.4 0.6 5.9 -1.8 9.5 -7.5 11.4 -4.2 1.4 -5.2 2.4 -5.2 5.7 0 1.6 0.7 2.6 2 2.9 2.8 0.7 2.6 3.3 -0.2 3.2 -1.3 -0.1 -4.4 -0.6 -7.1 -1.2z m6.6 -15.4 c0.6 -1.6 1.7 -3.4 2.4 -4.1 0.7 -0.7 1.3 -1.8 1.3 -2.3 0 -1.5 5 -1 5.6 0.5 0.9 2.3 -2.4 7.5 -4.8 7.6 -0.5 0 -0.8 -1 -0.8 -2.2 0 -1.6 -0.3 -1.9 -1.1 -1.1 -1.6 1.6 -0.3 4.3 2 4.3 2.4 0 6.1 -4.5 6.1 -7.5 0 -3.3 -2.5 -5 -5.4 -3.7 -3.4 1.5 -4 0.3 -1 -2 2.4 -1.9 2.4 -2.1 0.8 -3.9 -2.1 -2.3 -6.2 -2.5 -9.1 -0.4 -2.4 1.7 -2.2 3.6 0.6 6.9 1.5 1.8 1.5 1.9 -0.4 1.2 -3.9 -1.6 -5 -1.2 -5.3 1.9 -0.2 2 0.4 3.8 1.8 5.3 2.9 3 5.8 2.8 7.3 -0.5z"/>
  <path d="M130.6 165.8 c-1.6 -2.3 -2.1 -5 -1 -6 0.6 -0.7 6.1 1.9 6.9 3.3 1.1 1.7 -0.6 4.9 -2.5 4.9 -1 0 -2.6 -1 -3.4 -2.2z"/>
  <path d="M136 160.5 c0 -1 0.7 -1.5 1.8 -1.3 2.1 0.4 1.9 2.2 -0.2 2.6 -1 0.2 -1.6 -0.3 -1.6 -1.3z"/>
  <path d="M134.2 156.8 c-4 -4 2.5 -8 7.2 -4.5 1.7 1.3 1.6 1.5 -1.6 3.5 -4.1 2.6 -4 2.6 -5.6 1z"/>
  <path d="M246.7 178.7 c-6.2 -2.9 -6.7 -3.4 -5.5 -5 1.3 -1.7 1.7 -1.6 8.1 2 3.7 2.1 6.7 4.4 6.7 5.1 0 1.8 -1.7 1.4 -9.3 -2.1z"/>
  <path d="M236.7 174.4 c-0.3 -0.3 -0.1 -1.7 0.5 -3 0.9 -1.8 1.4 -2.1 2.4 -1.3 1 0.8 1.1 1.6 0.3 3 -1 1.9 -2.1 2.4 -3.2 1.3z"/>
  <path d="M231.7 171.8 c-0.3 -1.2 0.1 -3.4 1 -4.9 1.4 -2.3 1.8 -2.5 3 -1.4 1.7 1.8 1.7 3.6 -0.3 6.3 -1.9 2.8 -3 2.8 -3.7 0z m3.1 -4.8 c-0.2 -0.7 -1 0.1 -1.7 1.6 -1.2 2.7 -1.1 2.8 0.4 1.2 1 -0.9 1.6 -2.1 1.3 -2.8z"/>
  <path d="M227.7 171.4 c-1.3 -1.3 -0.7 -4.1 1.2 -5.8 3.3 -3 4.3 -1.4 1.8 2.7 -1.3 2.1 -2.6 3.5 -3 3.1z"/>
  <path d="M23.1 178.3 c-1.8 -6.3 -1.5 -8.3 1.4 -8.3 1.4 0 2.5 0.4 2.5 0.9 0 0.5 -0.9 0.7 -2 0.4 -2.5 -0.7 -2.6 1.2 -0.2 2.6 0.9 0.6 1.1 1.1 0.5 1.1 -0.7 0 -1.3 0.5 -1.3 1.1 0 0.5 0.4 0.8 0.8 0.5 0.4 -0.2 1.4 -0.1 2.2 0.5 1.3 0.7 1.2 0.9 -0.2 0.9 -1 0 -1.8 0.7 -1.8 1.6 0 1.2 0.6 1.5 2.3 1 1.2 -0.3 2.7 -0.6 3.3 -0.6 0.6 0 0.9 -1.3 0.6 -3 -0.3 -2.1 -1 -3 -2.3 -3 -1.3 0 -1.6 -0.5 -1.2 -1.6 0.5 -1.3 0.7 -1.3 1.4 -0.2 0.5 0.7 0.9 0.8 0.9 0.3 0 -0.6 -0.5 -1.6 -1.2 -2.3 -0.9 -0.9 -0.8 -1.2 0.8 -1.2 1.2 0 2 0.7 2.1 1.8 0.1 2.4 1.3 7.6 1.9 8.1 1 1.1 1.3 -0.8 0.5 -3.7 -0.6 -2 -0.6 -3.2 0 -3.2 0.5 0 0.9 0.9 0.9 1.9 0 3.7 1 4.8 4.3 4.4 1.8 -0.1 -0.4 0.6 -4.8 1.7 -4.4 1.1 -8.5 2 -9.2 2 -0.7 0 -1.7 -1.7 -2.2 -3.7z"/>
  <path d="M44.5 177.3 c1.1 -0.3 2.6 -1 3.4 -1.7 1.1 -0.9 1.3 -0.8 0.9 0.4 -0.2 0.8 -1.8 1.6 -3.4 1.7 -1.8 0.1 -2.2 0 -0.9 -0.4z"/>
  <path d="M36.6 175.8 c-1 -3.3 -1.4 -5.8 -0.8 -5.8 0.4 -0.1 2.6 -0.5 4.9 -0.9 4.3 -0.8 4.3 -0.8 4.9 2.6 0.4 1.9 0.5 3.5 0.3 3.7 -0.2 0.2 -2.3 0.7 -4.6 1.1 -3.2 0.5 -4.4 0.3 -4.7 -0.7z"/>
  <path d="M33 169.8 c0 -1.2 0.7 -1.8 2.3 -1.7 1.5 0 1.7 0.2 0.7 0.6 -0.8 0.3 -1.8 1.1 -2.2 1.7 -0.5 0.7 -0.8 0.4 -0.8 -0.6z"/>
  <path d="M208.7 178.5 c-0.9 -0.9 -1.7 -2.3 -1.7 -3 0 -1.5 4.7 -7.5 5.9 -7.5 0.9 0 6.5 10 5.9 10.5 -0.2 0.2 -2.2 0.7 -4.4 1.1 -3.1 0.4 -4.5 0.2 -5.7 -1.1z m8.3 -1.1 c0 -0.2 -1.9 -0.4 -4.2 -0.3 -3.1 0 -3.7 0.3 -2.4 0.8 1.8 0.7 6.6 0.3 6.6 -0.5z"/>
  <path d="M189 173.3 c0 -0.5 2.3 -2 5 -3.4 6.1 -3.3 6.7 -2 0.7 1.6 -4.6 2.6 -5.7 3 -5.7 1.8z"/>
  <path d="M65.7 168.7 c-5.5 -3.1 -4.9 -5.1 1.1 -4.2 5.9 0.8 6.5 1.4 4.3 4.2 -1.8 2.1 -1.8 2.1 -5.4 0z"/>
  <path d="M68.2 163.8 c-3.9 -0.8 -4.3 -1.2 -3.7 -3.1 0.3 -1.2 1.1 -4 1.7 -6.2 0.6 -2.2 1.2 -4.2 1.4 -4.3 0.1 -0.2 1.8 0.1 3.6 0.6 1.8 0.6 5.2 1.6 7.6 2.2 4.2 1.1 4.2 1.1 -0.5 6.5 -2.7 3 -5 5.4 -5.3 5.4 -0.3 -0.1 -2.5 -0.6 -4.8 -1.1z"/>
  <path d="M80.8 161.5 c-0.3 -1.4 -0.1 -2.5 0.3 -2.5 0.5 0 0.9 1.1 0.9 2.5 0 1.4 -0.2 2.5 -0.4 2.5 -0.2 0 -0.6 -1.1 -0.8 -2.5z"/>
  <path d="M75 150.1 c-0.8 -0.6 -1.9 -0.7 -2.5 -0.4 -0.5 0.4 -0.7 0.2 -0.2 -0.2 1.4 -1.6 4.7 -1.6 4.7 0 0 1.7 0 1.8 -2 0.6z"/>
  <path d="M160.5 159.9 c-1 -1.6 -0.7 -1.7 11 -5 7.7 -2.2 11 -2.8 11.8 -2 1.7 1.7 -0.1 2.7 -10.4 5.5 -10.9 2.9 -11.5 3 -12.4 1.5z"/>
  <path d="M159 155.1 c0 -1.7 1.8 -2.1 2.4 -0.6 0.3 0.9 0 1.5 -0.9 1.5 -0.8 0 -1.5 -0.4 -1.5 -0.9z"/>
  <path d="M161.7 151.8 c-0.7 -2.5 -0.1 -3.8 1.7 -3.8 1.4 0 2.9 3.8 2 5.2 -1 1.6 -3.2 0.8 -3.7 -1.4z"/>
  <path d="M167.2 153.3 c0.1 -0.5 -0.1 -2.3 -0.5 -4.1 -0.6 -2.9 -1 -3.2 -2.9 -2.7 -1.3 0.4 -3.1 1.4 -4.1 2.3 -2 1.8 -2.4 1.6 -2.9 -1.7 -0.1 -1.3 0.3 -2.6 1 -2.8 0.6 -0.3 1.2 0 1.2 0.6 0 1.4 2.6 1.4 5.2 0 1.3 -0.7 1.7 -1.4 1 -1.8 -0.6 -0.3 0.5 -1.1 2.4 -1.7 2.7 -0.9 3.4 -0.8 3.4 0.2 0 0.8 0.6 1.1 1.5 0.8 0.8 -0.4 1.5 -0.2 1.5 0.4 0 0.6 -0.4 1.2 -1 1.4 -0.5 0.2 -0.6 1.8 0 4.1 0.7 3.5 0.6 3.9 -1.7 4.8 -2.9 1.1 -4.4 1.2 -4.1 0.2z"/>
  <path d="M175 149 c-1.5 -2.8 -1.2 -4 1 -4 1.1 0 2 0.4 2 0.9 0 0.5 0.3 1.6 0.6 2.4 0.8 2.2 -2.4 2.9 -3.6 0.7z"/>
  <path d="M180 149.5 c0 -2 1.7 -2.8 2.3 -1.1 0.3 0.8 -0.1 1.7 -0.9 2 -0.8 0.3 -1.4 -0.1 -1.4 -0.9z"/>
  <path d="M177.3 143.3 c-2.7 -0.5 -2.8 -0.9 -0.9 -2.9 1.6 -1.6 3.6 -1.9 3.6 -0.5 0 0.5 0.3 1.6 0.6 2.5 0.3 0.9 0.2 1.5 -0.2 1.5 -0.5 -0.1 -1.9 -0.4 -3.1 -0.6z"/>
  <path d="M155.5 142.2 c-1.1 -1.1 -0.4 -1.9 1.7 -1.8 2.7 0.1 3.7 -3.3 1.5 -4.9 -1.3 -0.9 0.2 -1.6 7.8 -3.4 5.1 -1.3 9.8 -2.1 10.3 -1.7 0.5 0.3 1.2 1.7 1.5 3.2 0.3 1.9 0 2.7 -1.7 3.4 -4.6 1.7 -20.6 5.7 -21.1 5.2z"/>
  <path d="M160 130.4 c0 -0.7 1.7 -1.8 3.8 -2.3 4.8 -1.4 5.2 -1.4 5.2 0.2 0 0.8 -1.9 1.8 -4.5 2.4 -3.6 0.8 -4.5 0.8 -4.5 -0.3z"/>
  <path d="M31.1 157.6 c-1.7 -2.2 -4.5 -12.6 -3.5 -13.5 0.8 -0.9 20.4 -7.1 23.2 -7.4 1.9 -0.3 6.3 13 4.8 14.2 -0.6 0.5 -6.2 2.4 -12.3 4.4 -8.1 2.5 -11.5 3.1 -12.2 2.3z m8.9 -2.6 c2.8 -1.5 4.1 -6.4 2.4 -8.9 -2.5 -3.5 -5.2 -4.4 -8.5 -3.1 -2.9 1.2 -4.7 4.8 -4 8 0.8 4.2 5.9 6.3 10.1 4z m13.3 -7.1 c1.6 -2.6 0 -6.8 -2.9 -7.5 -4.6 -1.2 -8.5 5.1 -5.2 8.4 1.7 1.7 6.8 1.1 8.1 -0.9z"/>
  <path d="M33.2 153.4 c-1.2 -0.8 -2.2 -2.3 -2.1 -3.2 0 -1.3 0.2 -1.2 0.9 0.5 0.5 1.2 1.7 2.4 2.8 2.7 2.2 0.7 5.2 -0.2 5.2 -1.5 0 -0.5 -0.9 -0.4 -1.9 0.3 -2.4 1.4 -5.1 -0.4 -5.1 -3.4 0 -1.1 -0.4 -1.6 -1.1 -1.2 -0.8 0.4 -0.7 0 0.1 -1.5 0.8 -1.6 1.7 -2 3.2 -1.5 1.5 0.4 1.8 0.3 1.3 -0.6 -0.6 -0.9 -0.2 -0.9 1.6 0 4.4 2.4 5.1 5.8 1.9 9 -2.4 2.4 -3.8 2.5 -6.8 0.4z m5.6 -5.8 c-0.2 -1.9 -0.7 -2.4 -2.5 -2.2 -1.3 0.2 -2.3 0.7 -2.3 1.2 0.1 0.5 1 0.8 2 0.6 1.3 -0.2 2 0.2 2 1.2 0 0.9 0.2 1.6 0.5 1.6 0.3 0 0.4 -1.1 0.3 -2.4z"/>
  <path d="M46 147.5 c-0.6 -0.8 -1 -2.2 -0.8 -3.2 0.3 -1.5 0.6 -1.5 2.6 0.7 1.2 1.3 2.2 2 2.2 1.5 0 -0.5 -0.7 -1.6 -1.6 -2.6 -1.2 -1.3 -1.2 -1.9 -0.3 -2.5 0.8 -0.5 1 -0.3 0.5 0.5 -0.5 0.8 -0.2 1.1 0.9 0.9 1 -0.2 2.2 0.4 2.8 1.4 2.2 3.4 -3.6 6.6 -6.3 3.3z"/>
  <path d="M205.5 156 c0.3 -0.5 2.7 -2.4 5.3 -4.2 2.6 -1.7 4.9 -3.4 5.2 -3.7 1 -1.2 6 -3.4 6.5 -2.9 0.5 0.4 -4 3.8 -13.4 10 -2.9 2 -4.5 2.3 -3.6 0.8z"/>
  <path d="M201.2 150.3 c-4 -5.3 -8.6 -12.3 -8.1 -12.7 0.2 -0.1 3.9 -2.7 8.2 -5.7 8.9 -6.1 7.5 -6.6 15.8 5.3 4.3 6.3 5.1 5.2 -11.8 16.1 -0.7 0.4 -2.3 -0.7 -4.1 -3z m1.4 -16.4 c2.5 -1.7 4.3 -3.3 4 -3.6 -0.5 -0.5 -9.6 5.4 -9.6 6.2 0 1 1.3 0.4 5.6 -2.6z"/>
  <path d="M190.4 134.9 c-0.3 -0.6 0 -1.5 0.7 -2 0.8 -0.5 1.5 -0.4 1.7 0.1 0.2 0.6 0.8 1 1.4 1 0.6 0 0.8 -0.7 0.5 -1.5 -0.4 -0.9 1.5 -2.9 5.8 -5.9 5.1 -3.6 6.5 -4.1 6.9 -2.9 0.4 0.9 0.5 1.6 0.4 1.7 -0.2 0.1 -1.2 0.8 -2.3 1.6 -1.9 1.4 -1.9 1.4 -0.6 -0.2 1.6 -2.1 0.9 -2.3 -2.1 -0.7 -1.4 0.7 -1.7 1.4 -0.9 1.8 0.7 0.5 0 1.5 -1.9 2.9 -1.6 1.3 -3 1.8 -3 1.2 0 -0.5 -0.4 -1 -1 -1 -0.5 0 -0.7 0.6 -0.4 1.4 0.3 0.8 -0.3 1.9 -1.5 2.5 -2.5 1.4 -2.8 1.4 -3.7 0z"/>
  <path d="M236 153.5 c-0.6 -0.8 -0.9 -2.4 -0.6 -3.7 0.3 -1.3 0.3 -1.7 0 -1 -0.8 1.8 -2.4 0.4 -2.4 -2.2 0 -3.6 1.1 -3.8 4.8 -0.5 4.3 3.8 7.3 3.5 14.3 -1.7 4.3 -3.2 7.5 -3.8 6.7 -1.3 -0.6 1.7 -17.2 11.9 -19.4 11.9 -1.2 0 -2.7 -0.7 -3.4 -1.5z m4.7 -1.1 c0.7 -1.8 -1.7 -3.8 -3.1 -2.4 -1.1 1.1 -0.1 4 1.4 4 0.6 0 1.3 -0.7 1.7 -1.6z"/>
  <path d="M240.3 142.8 c-2.1 -2.3 -2.1 -2.3 3.2 -5.9 5.3 -3.7 5.3 -3.7 6.4 -1.3 0.6 1.3 1.5 2.4 2.1 2.4 1.7 0 2.4 -3 1 -4.3 -1 -1 -1.2 -0.8 -0.7 0.6 0.8 2.1 -0.9 2.3 -1.7 0.1 -0.8 -2.2 -0.8 -2.6 0.4 -1.9 0.6 0.3 1 0 1 -0.7 0.1 -2 3 2.3 3 4.4 0 1.7 -9.3 8.8 -11.6 8.8 -0.6 0 -2 -1 -3.1 -2.2z"/>
  <path d="M238 137 c0 -1.5 8.7 -7 11.2 -7 1.8 0 0.9 1 -3.9 4 -6.6 4.3 -7.3 4.5 -7.3 3z"/>
  <path d="M235.6 135.5 c-0.8 -2.2 0.3 -4 1.6 -2.7 0.7 0.7 0.7 1.6 0.1 2.7 -0.9 1.6 -1 1.6 -1.7 0z"/>
  <path d="M91.3 141.3 c0 -0.7 0.4 -1.3 0.9 -1.3 0.4 0 0.8 -1.2 0.8 -2.7 0 -3.4 1 -2.4 1.9 1.9 0.7 3 0.5 3.3 -1.4 3.3 -1.2 0 -2.2 -0.6 -2.2 -1.2z"/>
  <path d="M79.2 138.6 c-3.5 -1.9 -7 -4 -7.8 -4.7 -1.9 -1.6 -0.2 -3.5 2.3 -2.4 1 0.5 2.2 0.7 2.7 0.6 0.5 -0.1 1.6 0.4 2.5 1.2 0.9 0.8 3 1.8 4.6 2.2 2.2 0.6 2.5 0.9 1.2 1.2 -1 0.3 -3.3 -0.5 -5.2 -1.6 -1.9 -1.1 -3.5 -1.7 -3.5 -1.3 0 1.7 6.1 4.3 9.4 4 4.1 -0.2 4.9 0.3 4 2.6 -0.9 2.4 -3.1 2 -10.2 -1.8z"/>
  <path d="M119.4 137.8 c0.3 -1.3 0.6 -2.9 0.6 -3.5 0 -0.7 0.4 -1.3 1 -1.3 0.5 0 0.7 0.6 0.4 1.4 -0.4 1 0.3 1.6 2.3 1.9 2.7 0.4 2.7 0.4 -0.4 0.6 -1.8 0 -3.3 0.6 -3.3 1.1 0 0.6 1 0.8 2.3 0.6 1.2 -0.3 4.9 -1 8.1 -1.7 3.5 -0.6 5.4 -1.4 4.7 -1.9 -0.7 -0.4 -1.1 -1.1 -1 -1.6 0.2 -0.5 -1 -1.2 -2.7 -1.5 -2.9 -0.7 -2.9 -0.7 0.2 -0.8 2.4 -0.1 3.6 0.6 4.9 2.5 0.9 1.4 1.4 2.8 1.1 3.1 -0.6 0.6 -13.9 3.2 -17 3.2 -1.4 0.1 -1.7 -0.4 -1.2 -2.1z"/>
  <path d="M110.5 135.9 c-0.3 -0.5 -0.8 -3 -1.2 -5.6 -0.9 -7.6 0.6 -8.6 16.6 -11.2 13.4 -2.3 13.4 -2.3 15.7 0.1 1.5 1.4 2.6 4.1 3 7 0.6 4 0.4 4.7 -1.2 5 -1.1 0.3 -2.8 -0.3 -3.9 -1.3 -1.8 -1.6 -2.7 -1.6 -9 -0.4 -3.8 0.7 -8.7 1.6 -10.7 1.9 -2.3 0.4 -3.9 1.3 -4.3 2.5 -0.6 2 -4.2 3.5 -5 2z m17.5 -10.5 c13.8 -2.4 17.6 -3.4 13.4 -3.4 -2.8 0 -30.7 4.9 -31.2 5.5 -1 1 3.7 0.4 17.8 -2.1z"/>
  <path d="M116.7 135 c0.3 -1.1 0.9 -1.7 1.4 -1.5 1 0.7 0.1 3.5 -1.1 3.5 -0.5 0 -0.6 -0.9 -0.3 -2z"/>
  <path d="M137.2 132 c-0.7 -1.1 -0.9 -2 -0.4 -2 1 0 3.2 2.2 3.2 3.2 0 1.5 -1.5 0.8 -2.8 -1.2z"/>
  <path d="M117.2 116.3 c0.3 -2.6 0.7 -2.9 7.3 -4 3.9 -0.6 7.1 -1 7.2 -1 0 0.1 0.3 1.3 0.5 2.6 0.3 2.3 -0.1 2.5 -6.7 3.7 -3.8 0.7 -7.4 1.3 -7.8 1.3 -0.5 0.1 -0.7 -1.1 -0.5 -2.6z"/>
  <path d="M35.6 124.9 c-2.9 -4.5 -3.6 -6.3 -2.7 -7.2 1.3 -1.3 2.4 0 6.2 7 1.5 2.8 2 4.6 1.4 5.2 -0.7 0.7 -2.4 -1.1 -4.9 -5z"/>
  <path d="M30 117.1 c0 -0.6 -1.3 -1.8 -2.9 -2.7 -2.7 -1.6 -2.8 -1.9 -1.3 -3 0.9 -0.8 2.2 -1.3 2.7 -1.3 0.6 0 0.1 0.6 -0.9 1.4 -2.7 2 -1.1 1.9 2 -0.1 3.3 -2.2 4.5 -0.8 1.4 1.8 -1.8 1.4 -2 1.8 -0.7 1.4 2.6 -0.8 4.1 0.3 2.6 2 -1.3 1.6 -2.9 1.9 -2.9 0.5z"/>
  <path d="M24 109.7 c0 -2 2.2 -3.7 4.8 -3.7 2.1 0 2.3 0.2 1.2 1.5 -1.1 1.3 -1 1.5 0.6 0.9 1.5 -0.5 1.6 -0.4 0.4 0.4 -0.8 0.6 -1.8 0.9 -2.2 0.6 -0.4 -0.3 -1.7 0 -2.8 0.6 -1.5 0.8 -2 0.8 -2 -0.3z"/>
  <path d="M235 122.9 c-1.3 -0.9 -1.2 -1 0.3 -0.5 0.9 0.3 1.7 0.1 1.7 -0.3 0 -0.5 0.9 -0.7 2 -0.4 1.1 0.3 1.7 0.9 1.4 1.4 -0.7 1.2 -3.6 1.1 -5.4 -0.2z"/>
  <path d="M218 116.5 c-7.3 -2.8 -13.6 -5.7 -13.8 -6.4 -0.2 -0.6 0.1 -1.1 0.6 -1.1 1.2 0 30.6 11.1 31.2 11.8 0.3 0.3 -0.3 0.2 -1.2 -0.1 -1 -0.4 -1.8 -0.2 -1.8 0.3 0 1.4 0.1 1.4 -15 -4.5z"/>
  <path d="M240.5 120 c0.3 -0.5 -0.2 -0.9 -1.2 -0.7 -1 0.1 -9.3 -2.6 -18.4 -6.1 -16.6 -6.4 -16.6 -6.4 -15.5 -9.8 0.6 -1.9 1.8 -3.4 2.6 -3.4 1.5 0 22.1 7.8 23 8.7 0.3 0.2 -0.9 0.2 -2.5 -0.2 -2.3 -0.5 -2.6 -0.4 -1.5 0.4 1.3 1 1.3 1.1 0 1.1 -1.3 0 -1.3 0.1 0 1 0.8 0.5 1.1 1 0.5 1 -0.5 0 -1.7 -0.5 -2.5 -1 -1.3 -0.9 -1.3 -1 0 -1 1.3 0 1.3 -0.1 0 -1 -1.3 -0.9 -1.3 -1 0 -1.1 0.8 0 0 -0.7 -1.8 -1.5 -3.6 -1.6 -8.7 -1 -6.1 0.7 0.8 0.5 1 0.9 0.4 0.9 -0.5 0 -1.6 -0.4 -2.4 -0.9 -1.1 -0.7 -0.9 -1 0.9 -1.6 1.8 -0.6 2 -0.9 0.9 -1.6 -0.8 -0.5 -2.1 -0.9 -2.9 -0.9 -1.2 0 -1.2 0.2 -0.2 0.9 2 1.2 -1.2 2.3 -4 1.2 -2.1 -0.8 -2.1 -0.8 0.7 -1.5 2.3 -0.6 2.6 -0.9 1.4 -1.7 -0.7 -0.5 -2.1 -0.9 -2.9 -0.9 -1.2 0 -1.2 0.2 -0.2 0.9 1.1 0.6 1 1 -0.4 1.5 -2.7 1.1 -0.9 2.1 13.1 7.4 7.2 2.8 13.8 5.3 14.7 5.7 1 0.4 1.5 1.2 1.2 1.7 -0.4 0.6 0.2 0.7 1.7 0.3 2.9 -0.9 2.6 -0.6 3.1 -3 0.2 -1.3 -0.3 -2 -1.7 -2.3 -1.6 -0.2 -1.7 -0.1 -0.5 0.7 1.3 1 1.3 1.1 0 1.1 -1.3 0 -1.3 0.1 0 1 2.1 1.3 0.6 1.2 -2.5 -0.2 -2.6 -1.2 -2.6 -1.2 -0.3 -2.5 2.3 -1.4 2.3 -1.4 -0.2 -0.9 -1.4 0.3 -3.2 0.1 -4 -0.4 -1.3 -0.9 -1.3 -1 0 -1 1.3 0 1.3 -0.1 0 -1.1 -2 -1.4 2 -0.2 7.9 2.3 3.4 1.4 4.2 2.2 3.6 3.6 -0.4 0.9 -1 2.5 -1.2 3.5 -0.3 0.9 -1.2 1.7 -2 1.7 -0.8 0 -1.1 -0.4 -0.8 -1z"/>
  <path d="M220.2 109.1 c-1.1 -0.6 -1 -1 0.4 -1.5 0.9 -0.3 1.9 -0.4 2.2 -0.1 0.3 0.3 -0.1 0.5 -0.9 0.5 -1.1 0 -1.1 0.2 0.1 1 0.8 0.5 1.1 1 0.5 1 -0.5 0 -1.6 -0.4 -2.3 -0.9z"/>
  <path d="M82.5 121.8 c0.4 -1.3 1.1 -2.7 1.6 -3.3 0.5 -0.5 0.4 0.5 -0.2 2.3 -1.2 3.6 -2.4 4.4 -1.4 1z"/>
  <path d="M80 122 c0 -0.8 0.5 -2.2 1 -3 0.9 -1.3 1 -1.3 1 0 0 0.8 -0.5 2.2 -1 3 -0.9 1.3 -1 1.3 -1 0z"/>
  <path d="M96.5 110.4 c-2.9 -1.1 -4.5 -1.2 -5.7 -0.5 -1.2 0.7 -2.7 0.7 -4.8 -0.1 -3 -1 -3.2 -1.3 -2.7 -4.6 1.3 -7.6 6 -9 15.8 -4.6 6.5 3 7.3 4 5.6 8.3 -1.3 3.4 -2.4 3.6 -8.2 1.5z m7.5 -4.3 c0 -2.3 -1.1 -3.1 -5.6 -4.1 -3.8 -0.9 -6.4 0.9 -4.1 2.8 3.9 3.3 9.7 4 9.7 1.3z"/>
  <path d="M97.5 104.5 c-2.3 -1 -2.5 -1.3 -1 -1.4 1.1 0 3.1 0.6 4.5 1.4 3.2 1.8 0.5 1.9 -3.5 0z"/>
  <path d="M47.8 120.9 c-2.2 -1.2 -2.3 -5.2 -0.4 -6.8 1.2 -1 1.5 -0.8 1.8 1.1 0.2 1.2 1.4 2.8 2.7 3.4 2.3 1.2 2.3 1.2 0.3 2.3 -2.4 1.3 -2.2 1.3 -4.4 0z"/>
  <path d="M57.4 116.2 c0.3 -0.5 0 -5.5 -0.5 -11.2 -1.2 -11.9 -1.2 -12 6.7 -12 5.2 0 5.2 0 5.9 7.6 0.4 4.1 0.4 7.8 0.1 8.1 -0.3 0.4 -0.6 -0.9 -0.6 -2.8 0 -2.6 -0.3 -3 -1 -1.9 -0.8 1.2 -1 1.2 -1.1 -0.5 0 -1.1 -0.3 -1.5 -0.5 -0.9 -0.2 0.6 -2 0.9 -3.9 0.8 -1.9 -0.2 -3.7 0.2 -4.1 0.7 -0.8 1.3 1.3 3.6 2.3 2.5 0.4 -0.4 0.1 -1.2 -0.7 -1.7 -1.3 -0.9 -1.3 -1 0 -0.6 2.1 0.5 1.9 3.2 -0.2 3.1 -1.4 -0.1 -1.7 0.5 -1.3 3.2 0.5 4.3 1.2 5.4 2.8 4.9 0.7 -0.3 2.8 -0.6 4.7 -0.8 2.6 -0.2 3.5 -0.7 3.4 -2 -0.1 -0.9 0.2 -1.7 0.7 -1.7 0.5 0 0.9 1.1 0.9 2.4 0 2.1 -0.6 2.4 -5.2 3 -7.1 0.8 -9 0.8 -8.4 -0.2z m8.7 -17.2 c1.4 0 1.9 -0.7 1.9 -2.5 0 -2.7 -0.8 -2.9 -7.2 -1.9 -2.7 0.5 -3.8 1.2 -3.8 2.4 0 2.5 1.2 3.2 4.4 2.6 1.6 -0.3 3.7 -0.6 4.7 -0.6z"/>
  <path d="M58.6 97.1 c-0.3 -0.5 0.9 -1.1 2.8 -1.3 3.9 -0.4 5.6 0 5.6 1.3 0 1.2 -7.7 1.2 -8.4 0z"/>
  <path d="M52.9 115.8 c-0.1 -0.2 -0.7 -4.7 -1.3 -10 -1.1 -9.5 -1.1 -9.7 1 -10.1 2.1 -0.4 2.2 0.1 2.9 9 0.4 5.1 0.7 9.6 0.6 10 0 0.8 -3 1.8 -3.2 1.1z"/>
  <path d="M60.4 112.2 c0.1 -2.1 0.7 -2.7 2.4 -2.5 2.4 0.3 3 -1.2 1 -2.1 -0.7 -0.3 -0.3 -0.3 1 0 1.4 0.3 2.2 0.1 2.2 -0.7 0 -0.7 0.3 -0.9 0.7 -0.6 0.3 0.4 -0.2 1.7 -1.3 2.9 -1.8 2 -1.8 2.1 -0.1 1.5 1.2 -0.4 1.6 -0.3 1.1 0.4 -0.4 0.6 -0.1 1.5 0.6 1.9 0.8 0.5 0.4 0.8 -1.2 0.7 -1.4 -0.1 -2.4 -0.7 -2.1 -1.3 0.2 -0.6 -0.4 -1.4 -1.3 -1.8 -2 -0.8 -3.4 0.2 -1.7 1.2 0.8 0.5 0.7 1.1 -0.2 1.9 -1.1 1 -1.3 0.8 -1.1 -1.5z"/>
  <path d="M182.5 115.3 c-3.3 -0.2 -6.4 -0.8 -6.8 -1.2 -0.5 -0.5 -0.3 -6.5 0.4 -13.5 1.2 -12.6 1.2 -12.6 5.3 -12.6 2.3 0 5.8 0.3 8 0.7 3.8 0.6 3.8 0.6 3.2 6.7 -0.3 3.4 -0.9 9 -1.2 12.6 -0.7 6.8 -1 8.1 -2.2 7.8 -0.4 -0.1 -3.4 -0.3 -6.7 -0.5z m5.3 -2.9 c4.2 -2.9 2.5 -10.7 -2.7 -11.9 -4.4 -1 -8.1 1.8 -8.1 6.1 0 6.2 5.8 9.3 10.8 5.8z m0.7 -15.4 c2.4 -2.7 1.3 -6.8 -2.2 -7.6 -3.4 -0.9 -5.7 0.6 -6.1 4 -0.6 5.3 4.7 7.6 8.3 3.6z"/>
  <path d="M179.2 110.8 c-0.7 -0.7 -1.2 -2.1 -1.2 -3.3 0 -2.6 2.5 -6.3 3.6 -5.2 0.4 0.4 0.2 0.7 -0.4 0.7 -0.7 0 -1.2 0.4 -1.2 0.9 0 0.4 1.5 0.8 3.3 0.7 2.6 0 3.3 0.4 3.5 2.1 0.2 1.6 -0.5 2.6 -2.7 3.7 -3.6 1.9 -3.4 1.9 -4.9 0.4z m1.8 -1.4 c-0.8 -0.8 -0.9 -1.4 -0.4 -1.3 2.2 0.4 4.4 -0.2 4.4 -1.2 0 -0.6 -0.9 -0.8 -2.1 -0.4 -1.3 0.4 -1.9 0.3 -1.6 -0.2 0.4 -0.5 0 -1 -0.8 -1 -1.5 0 -2.1 3.8 -0.8 5 1.4 1.4 2.5 0.6 1.3 -0.9z"/>
  <path d="M182.8 96.9 c-2.3 -1.3 -2.3 -4.2 -0.1 -6 1.1 -1 1.4 -1 0.9 -0.1 -0.4 0.7 -0.1 1.2 0.9 1.2 1 0 1.3 -0.5 0.9 -1.2 -0.5 -0.9 -0.2 -0.9 0.9 0.1 2 1.6 2.2 4.2 0.5 5.9 -1.4 1.4 -1.8 1.4 -4 0.1z"/>
  <path d="M153 109.5 c-1.9 -0.7 -3 -1.4 -2.3 -1.4 0.6 -0.1 2.4 0.4 3.9 0.9 3.7 1.5 5.4 -0.5 8.9 -10.3 1.5 -4.2 3 -7.6 3.2 -7.4 0.9 1 -6.1 17.8 -7.7 18.7 -1 0.6 -2 1 -2.2 0.9 -0.2 0 -1.9 -0.7 -3.8 -1.4z"/>
  <path d="M148 105.9 c-3 -1 -5.8 -2.3 -6.3 -2.8 -0.8 -0.8 2.5 -14.8 4.4 -18.3 0.6 -1.2 1.7 -1.7 2.6 -1.4 0.8 0.3 1.7 0.6 1.9 0.6 0.2 0 0.4 1.5 0.4 3.4 0 4.4 3.2 7.1 6.1 5.3 1.1 -0.7 1.9 -1.5 1.9 -1.9 0 -0.5 -0.8 -0.3 -1.9 0.3 -2.2 1.5 -5.1 0.5 -5.1 -1.6 0 -1.2 0.6 -1.5 1.9 -1 4.3 1.3 6.1 1.3 6.9 -0.1 0.7 -1.2 1.1 -1.2 2.7 0 2.2 1.6 2 2.2 -2.7 14.4 -2.4 6 -3.6 6.4 -12.8 3.1z"/>
  <path d="M139.6 100 c0.4 -1.9 1.3 -5.3 2 -7.5 1.3 -4 1.3 -4 0.7 0 -0.3 2.2 -1.2 5.6 -1.9 7.5 -1.4 3.5 -1.4 3.5 -0.8 0z"/>
  <path d="M143 87.3 c-0.1 -4.8 4.3 -7.7 8 -5.3 1.1 0.7 0.6 0.8 -1.7 0.4 -3 -0.6 -3.4 -0.4 -4.8 2.7 -0.8 1.9 -1.4 2.9 -1.5 2.2z"/>
  <path d="M156.7 86.9 c-1 -0.6 -2.5 -0.8 -3.3 -0.5 -0.8 0.3 -1.4 -0.1 -1.4 -0.9 0 -2 1.5 -2.7 4.7 -1.9 2.5 0.7 2.5 0.8 0.8 1.5 -1.6 0.6 -1.7 0.8 -0.3 0.8 0.9 0.1 2 0.6 2.3 1.1 0.8 1.3 -0.5 1.2 -2.8 -0.1z"/>
  <path d="M244 101.2 c-3.6 -2 -7.4 -4.2 -8.4 -4.8 -1.8 -1.1 -1.6 -1.6 2.4 -9.5 2.3 -4.6 4.6 -8.8 5.1 -9.3 0.5 -0.6 2.3 -0.2 4.6 1 12.3 6.7 14.3 7.9 14.3 8.7 0 1.7 -9.5 17.7 -10.5 17.7 -0.5 -0.1 -3.9 -1.7 -7.5 -3.8z m5.9 -2.5 c-0.2 -0.1 -1.7 -1.1 -3.4 -2.3 -1.6 -1.1 -3.8 -2.3 -4.7 -2.7 -1.9 -0.7 -1.5 -3.1 1.2 -6.6 1.8 -2.5 1.8 -2.5 5.9 -0.6 6.1 2.7 6.5 3.6 4 8.4 -1.2 2.3 -1.9 4.4 -1.6 4.7 0.3 0.3 1.7 -1.6 3.1 -4.4 2.4 -4.6 2.4 -5.1 0.8 -6.4 -2.5 -2.2 -9.1 -5.8 -10.5 -5.8 -1.6 0 -6.1 8.6 -5.4 10.3 0.5 1.4 9.9 6.8 10.6 6.1 0.2 -0.2 0.2 -0.5 0 -0.7z m9.1 -11.6 c0 -0.8 -12 -8.1 -13.4 -8.1 -2.1 0 0.2 2.2 4.7 4.5 2.8 1.5 5.6 3.1 6.2 3.6 1.2 1.2 2.5 1.2 2.5 0z"/>
  <path d="M254.7 80.6 c-9.9 -5.4 -10.1 -5.7 -8.6 -8.9 1.2 -2.7 1.2 -2.7 8.8 1.4 11.2 5.9 11.4 6.2 10 9.3 -0.7 1.4 -1.5 2.6 -1.8 2.5 -0.3 0 -4.1 -2 -8.4 -4.3z m9 0.2 c-0.2 -0.7 -1 -1.2 -1.6 -1 -0.6 0.1 -1.1 -0.2 -1.1 -0.8 0 -0.5 -0.6 -1 -1.4 -1 -0.8 0 -1.6 -0.6 -1.9 -1.2 -0.2 -0.7 -0.8 -1 -1.2 -0.6 -0.8 0.7 0.8 2.5 4 4.5 2.6 1.6 3.8 1.6 3.2 0.1z m-12.6 -6.4 c1 -1.3 1 -1.7 -0.2 -2.5 -2 -1.3 -3.4 -0.6 -3.7 1.9 -0.4 2.6 1.9 3 3.9 0.6z"/>
  <path d="M111.8 95.9 c-2.9 -2.3 -5.7 -4.6 -6.2 -5 -0.5 -0.4 0.3 -1.4 1.8 -2 1.7 -0.8 2.9 -2.3 3.3 -4.1 0.7 -3.4 1 -3.4 4.8 0 1.7 1.5 2.6 2.4 1.9 1.9 -1.2 -0.8 -4.1 1.9 -3 3 0.3 0.3 0.6 0.1 0.6 -0.5 0 -1.7 2.5 -1.5 3.9 0.2 1 1.1 0.8 1.7 -0.6 2.5 -1 0.6 -1.4 1.1 -0.9 1.1 0.5 0 0.3 0.7 -0.4 1.5 -1.9 2.2 -5.3 0.1 -4.4 -2.8 0.6 -2.2 0.6 -2.2 -0.9 -0.2 -1.5 1.8 -1.4 2.1 0.6 3.7 3 2.4 3.8 2.2 6.5 -1.3 2 -2.4 2.2 -3.2 1.2 -4.4 -1 -1.2 -1 -1.5 0 -1.5 0.9 0 0.9 -0.4 -0.1 -1.7 -1.3 -1.6 -1.2 -1.7 0.4 -0.4 0.9 0.8 1.5 1.6 1.2 1.9 -0.3 0.3 0.2 1.4 1.1 2.3 1.5 1.7 1.5 2 0.1 4.1 -2.7 3.8 -4.4 5.8 -5 5.8 -0.3 0 -2.9 -1.9 -5.9 -4.1z"/>
  <path d="M121.8 85.2 c-4.7 -3.6 -4.8 -3.6 -3.1 -6.2 0.9 -1.4 2.2 -3.1 2.9 -3.7 0.7 -0.7 2.2 -2.5 3.3 -3.9 2 -2.6 2 -2.6 6.6 1.1 2.5 2.1 4.5 4 4.5 4.3 0 0.6 -8 11.1 -8.9 11.6 -0.3 0.2 -2.7 -1.3 -5.3 -3.2z m8 -1.4 c5.8 -6.8 5.8 -6.7 2.1 -9.8 -1.9 -1.6 -3.9 -2.9 -4.5 -3 -1.2 0 -8.4 8.2 -8.4 9.7 0 0.9 6.1 6.2 7.3 6.3 0.5 0 2 -1.4 3.5 -3.2z"/>
  <path d="M123.1 83.2 c-3.3 -2.7 -3.3 -2.7 0.6 -6.9 3.8 -4.3 3.8 -4.3 6.7 -1.9 2.9 2.4 2.9 2.4 -0.4 7 -1.9 2.5 -3.4 4.6 -3.5 4.6 0 0 -1.6 -1.2 -3.4 -2.8z"/>
  <path d="M210.2 88.9 c-1.3 -3.4 -0.5 -5.1 3.4 -7.7 1.9 -1.2 4.7 -4 6.2 -6.2 2.7 -3.9 5.3 -4.9 8.1 -3.1 0.9 0.6 1.1 1.6 0.7 2.7 -0.7 1.7 -0.9 1.7 -1.9 0.3 -1.2 -1.6 -3.7 -1.5 -3.7 0.2 0 0.6 0.5 0.7 1 0.4 1.3 -0.8 1.3 0.1 0 2.6 -0.6 1 -1.7 1.9 -2.5 1.9 -1.7 0 -2 -1.6 -0.5 -2.5 0.6 -0.3 1 -1 1 -1.6 0 -0.5 -1 0.1 -2.2 1.3 -1.5 1.5 -2.2 3.5 -2.2 6.2 -0.1 3.4 -0.6 4.3 -3.3 5.9 -3.3 1.9 -3.3 1.9 -4.1 -0.4z m4.5 -2.5 c0.8 -2.1 -1.3 -4.2 -2.8 -2.7 -1.3 1.3 -0.5 4.3 1.1 4.3 0.6 0 1.3 -0.7 1.7 -1.6z"/>
  <path d="M222 82.5 c1.9 -1.9 3.6 -3.5 3.9 -3.5 0.3 0 -1 1.6 -2.9 3.5 -1.9 1.9 -3.6 3.5 -3.9 3.5 -0.3 0 1 -1.6 2.9 -3.5z"/>
  <path d="M218.4 82.3 c0.2 -1 0.6 -1.7 1 -1.6 1.5 0.3 1.6 1.1 0.2 2.2 -1.2 1 -1.4 0.9 -1.2 -0.6z"/>
  <path d="M200.2 79.7 c-0.9 -1 1 -3.4 7.9 -10.3 8.7 -8.6 9.1 -8.8 10.5 -6.9 1.4 1.9 1.3 3.9 -0.3 8.1 -0.5 1.2 -0.3 1.5 0.6 0.9 2.4 -1.4 -0.5 2.8 -4.1 6 -3.3 3 -3.3 3 0 -0.5 3.4 -3.8 4.4 -6.2 1.5 -3.9 -1.5 1.3 -1.5 1.2 0 -1.8 1.8 -3.4 2.3 -9.3 0.8 -9.3 -0.4 0 -0.6 1.1 -0.4 2.4 0.3 1.3 -0.3 3.8 -1.1 5.5 -0.9 1.7 -1.5 3.5 -1.2 4 0.7 1.1 -3.3 4.7 -6.7 6 -3.8 1.5 -6.2 1.4 -7.5 -0.2z"/>
  <path d="M76.8 85.9 c-1 -0.5 -2.3 -1.9 -2.9 -3 -1.4 -2.7 0.9 -6.3 5 -7.7 2.7 -1 3.3 -0.8 5.1 1.5 2.6 3.3 2.5 4.9 -0.5 7.8 -2.6 2.7 -4 3 -6.7 1.4z"/>
  <path d="M70.7 78.6 c-1.4 -3.5 -0.7 -6.4 1.8 -8 3.2 -2.1 4.8 -2 7.6 0.3 2.3 1.8 2.3 1.8 0 2.6 -1.5 0.5 -2.9 0.1 -4.2 -1.1 -2.3 -2.1 -3.8 -1 -2.1 1.6 0.9 1.5 0.8 2.3 -0.7 4.1 -1.6 2 -1.8 2 -2.4 0.5z"/>
  <path d="M55.3 79.9 c0.7 -2.6 -1.5 -8.9 -5.4 -15.2 -2.9 -4.8 -3.5 -7.3 -0.9 -4.2 0.7 0.8 1.7 1.5 2.2 1.5 0.7 0 0.6 -0.5 -0.1 -1.3 -0.6 -0.8 -0.7 -1.8 -0.3 -2.2 0.4 -0.5 0.2 -0.5 -0.5 -0.1 -0.6 0.3 -1.4 0.2 -1.8 -0.4 -0.4 -0.6 -0.9 -0.8 -1.3 -0.6 -0.4 0.2 -0.8 -1.7 -1 -4.2 -0.2 -4.7 -0.2 -4.7 1.2 -2 0.8 1.6 1.8 3.3 2.2 4 0.4 0.7 0.3 0.8 -0.4 0.4 -0.7 -0.4 -1.2 -0.2 -1.2 0.3 0 0.6 0.6 1.1 1.4 1.1 1.8 0 2.5 1.1 3 4.7 0.7 4.5 3.4 12.4 5.6 16 2.5 4.3 2.5 4.3 -0.6 4.3 -2.2 0 -2.5 -0.4 -2.1 -2.1z"/>
  <path d="M179.8 76.1 c-0.1 -0.6 -3.6 -4.4 -7.7 -8.6 -7.5 -7.6 -7.5 -7.6 2 -16.5 7.4 -6.9 9.7 -8.6 10.8 -7.7 1.5 1.3 10.9 14.9 11.7 17.1 0.3 0.8 -1.9 3.6 -5.3 6.9 -7.7 7.4 -11.1 9.9 -11.5 8.8z m7.1 -10.8 c1.2 -1 2.3 -3.3 2.5 -5 0.9 -8 -10.3 -11.3 -13.9 -4.2 -2 3.7 -1.9 5.1 0.6 8.3 2.5 3.1 7.5 3.5 10.8 0.9z"/>
  <path d="M177.7 64.2 c-1.8 -1.9 -2.2 -5.9 -0.9 -7.9 1.3 -2.1 5.5 -3.1 8 -2 3.7 1.7 3.8 5 0.2 8.6 -3.6 3.6 -5 3.8 -7.3 1.3z m6.2 -7.2 c1.2 0.6 2.1 0.8 2.1 0.6 0 -0.3 -0.9 -1 -2 -1.6 -2.2 -1.2 -6 0.2 -6 2.2 0 0.6 0.9 0.3 1.9 -0.6 1.5 -1.4 2.4 -1.5 4 -0.6z"/>
  <path d="M194.5 54.3 c-2.1 -3.2 -5.1 -7.5 -6.8 -9.6 -2.8 -3.7 -2.9 -3.9 -1.1 -5.2 1.7 -1.3 2.4 -0.9 7.4 4.3 11.1 11.6 10.7 10.8 8 13.7 -1.3 1.4 -2.7 2.5 -3 2.5 -0.4 0 -2.4 -2.6 -4.5 -5.7z m7.2 1.1 c0.3 -0.8 0.1 -2 -0.5 -2.6 -0.9 -0.9 -1 -0.6 -0.7 1 0.3 1.7 -0.1 2.2 -1.6 2.2 -2.1 0 -2.6 -2.5 -0.6 -3.3 0.9 -0.4 0.9 -0.6 0 -0.6 -1.6 -0.1 -2.6 1.7 -1.9 3.4 0.7 2 4.5 1.9 5.3 -0.1z m-8.4 -9 c0.7 -0.8 -1.5 -4.4 -2.7 -4.4 -0.4 0 -0.3 0.7 0.4 1.5 2 2.4 0.5 1.8 -1.6 -0.7 -1 -1.2 -1.3 -1.8 -0.6 -1.4 1.4 0.9 1.7 -1 0.2 -1.9 -2.2 -1.4 -2.2 2.7 0 5.1 2.4 2.5 3.2 2.8 4.3 1.8z"/>
  <path d="M154.7 67.3 c-0.4 -5.4 -0.2 -7.2 0.7 -6.2 0.9 1 1.7 11.9 0.8 11.9 -0.5 0 -1.2 -2.6 -1.5 -5.7z"/>
  <path d="M136.1 56.8 c-0.7 -1.2 -1.7 -3.4 -2.2 -5 -0.7 -2.6 -0.6 -2.8 2.4 -2.8 1.8 -0.1 4.9 -0.3 7.1 -0.6 3.9 -0.6 3.9 -0.6 3.2 3.1 -1.1 5.6 -2.6 7.5 -6.1 7.5 -2 0 -3.5 -0.7 -4.4 -2.2z m3.1 -0.8 c-1.2 -1.2 -2.2 -2.7 -2.2 -3.5 0 -0.8 -0.4 -1.5 -1 -1.5 -0.5 0 -0.7 0.8 -0.3 1.8 0.8 2.3 3.4 5.2 4.6 5.2 0.6 0 0.1 -0.9 -1.1 -2z"/>
  <path d="M99.5 64.5 c-2.7 -0.7 -4.1 -1.3 -3 -1.3 1.1 0 4.3 0.6 7 1.3 2.8 0.7 4.1 1.3 3 1.3 -1.1 0 -4.2 -0.6 -7 -1.3z"/>
  <path d="M95.7 61.5 c-5.9 -1.2 -10.9 -2.4 -11.2 -2.6 -1 -1.1 6.1 -7.1 11.3 -9.6 4.1 -1.9 7.7 -2.8 13.4 -3.1 7.2 -0.4 7.8 -0.3 7.8 1.5 0 1 0.6 4.2 1.4 7.1 1.3 5.3 1.3 5.3 -2.5 7.2 -4.7 2.4 -6.6 2.4 -20.2 -0.5z m15.6 -1.7 c3 -1.5 4.6 -3.9 4.7 -6.5 0 -4.5 -1 -5.3 -6.4 -5.3 -5.3 0 -10.9 2.1 -17.2 6.4 -4.2 2.8 -4.2 2.9 5.6 5 8.3 1.8 10.6 1.9 13.3 0.4z"/>
  <path d="M98.7 58.3 c-7.8 -1.5 -7.8 -1.5 -4.5 -3.8 2.9 -2 3.4 -2.1 4.4 -0.7 0.6 0.9 1.8 1.3 2.7 0.9 0.9 -0.3 1.9 -0.2 2.2 0.3 0.8 1.4 6.8 1.3 8.2 -0.1 0.8 -0.8 1.3 -0.7 1.8 0.1 0.9 1.5 -1.3 3.6 -4.5 4.3 -1.4 0.2 -6 -0.2 -10.3 -1z"/>
  <path d="M105 54 c0 -0.5 1.2 -1 2.6 -1 1.4 0 2.3 0.4 1.9 1 -0.3 0.6 -1.5 1 -2.6 1 -1 0 -1.9 -0.4 -1.9 -1z"/>
  <path d="M100.8 51.8 c2.6 -3.2 13.2 -3.2 13.2 -0.1 0 1.1 -0.6 1.3 -2.2 0.8 -2.8 -0.9 -5.4 -0.9 -9.3 0.1 -2.6 0.6 -2.8 0.5 -1.7 -0.8z"/>
  <path d="M233.7 60.5 c-0.3 -1.1 -0.2 -3.8 0.2 -6 0.7 -4 0.7 -4 1.3 -0.2 0.4 2.1 0.3 4.8 -0.1 6 -0.8 2.1 -0.8 2.1 -1.4 0.2z"/>
  <path d="M23.2 55.5 c-6.2 -6.1 -6.5 -6.6 -4.9 -8.2 2 -2 3.5 -1 4.2 2.8 0.5 2.9 5.8 7.9 8.4 7.9 1 0 2.1 0.9 2.4 2 1 4 -3.4 2 -10.1 -4.5z"/>
  <path d="M26.6 54.4 c-1.4 -1.5 -2.6 -3.2 -2.6 -3.8 0 -0.6 0.8 -0.1 1.8 1.1 0.9 1.2 2.6 2.9 3.7 3.7 1.1 0.9 1.5 1.6 0.9 1.6 -0.6 0 -2.3 -1.2 -3.8 -2.6z"/>
  <path d="M11 41.3 c-5.5 -5.8 -5.5 -5.8 0.3 -0.3 5.3 5 6.2 6 5.4 6 -0.1 0 -2.7 -2.6 -5.7 -5.7z"/>
  <path d="M15.9 43.4 c-0.7 -0.8 -0.8 -1.4 -0.3 -1.3 0.5 0.2 1.9 -0.1 3.2 -0.5 3.3 -1.1 3.7 -0.2 0.8 1.7 -2.2 1.5 -2.6 1.5 -3.7 0.1z"/>
  <path d="M66 46.6 c0 -6.5 0 -6.5 -4.4 -6 -5.3 0.7 -8.6 -0.8 -8.6 -3.9 0 -1.8 0.2 -1.9 1 -0.7 0.8 1.3 1 1.2 1 -0.2 0 -1.5 0.9 -1.8 4.9 -1.8 4.4 0 5 0.3 5.4 2.3 0.3 1.5 0.4 1.3 0.2 -0.5 -0.1 -2.4 0.2 -2.8 2.6 -2.8 2.7 0 2.7 0.2 3.1 6.5 0.3 7.3 -0.4 11.4 -2.4 12.6 -2.4 1.6 -2.8 0.9 -2.8 -5.5z m3.8 -3.7 c-0.2 -0.6 -0.8 -1 -1.3 -1 -0.5 0 -1.1 0.4 -1.3 1 -0.2 0.6 0.4 1.1 1.3 1.1 0.9 0 1.5 -0.5 1.3 -1.1z"/>
  <path d="M48.9 36.8 c-0.8 -3 -0.7 -4.8 0.5 -4.8 0.7 0 1.6 1.1 1.8 2.5 0.4 1.7 0.1 2.5 -0.8 2.5 -0.8 0 -1.4 -0.1 -1.5 -0.2z"/>
  <path d="M52.6 32.4 c-0.3 -0.7 0.5 -1.5 1.7 -1.8 3.4 -0.9 15.7 -0.7 15.7 0.2 0 1.5 -16.9 2.9 -17.4 1.6z"/>
  <path d="M157.2 44.8 c-5.7 -11.8 -7.9 -17.4 -7.1 -18.4 0.5 -0.6 3 -1.9 5.6 -2.9 4.4 -1.7 4.7 -1.7 6 0 0.7 1.1 1.3 2.4 1.3 2.9 0 0.6 -0.6 0.2 -1.2 -0.9 -0.6 -1.1 -1.2 -2.2 -1.4 -2.4 -0.6 -0.7 -9.4 3.2 -9.4 4.3 0 0.5 0.7 3 1.6 5.3 1.4 3.5 2.1 4.2 3.5 3.8 1.1 -0.4 1.9 -0.2 1.9 0.5 0 0.8 0.6 0.8 2 0 1.4 -0.8 2.6 -0.8 4 0 1.2 0.6 2 0.7 2 0.1 0 -0.5 -1.2 -1.4 -2.7 -1.9 -2.7 -0.9 -2.8 -0.9 -0.6 -1.6 1.9 -0.6 2.1 -1.1 1.2 -2.8 -0.6 -1.1 -0.9 -2.2 -0.6 -2.4 0.2 -0.2 1.8 2.7 3.5 6.6 3.1 7 3.1 7 -0.6 8.9 -6.5 3.2 -7.7 3.4 -9 0.9z m8.6 -2.6 c1.5 -2 1.5 -3.2 0 -3.2 -0.6 0 -0.8 0.3 -0.5 0.7 1.1 1.1 -1.4 3.3 -3.8 3.3 -1.3 0 -2.6 -0.9 -3.3 -2.2 -0.6 -1.3 -1.1 -1.7 -1.1 -1 -0.1 0.6 0.8 2.1 1.9 3.2 2.1 2.1 4.6 1.8 6.8 -0.8z m-2.8 -2.7 c0 -0.8 -0.4 -1.5 -1 -1.5 -0.5 0 -1 0.7 -1 1.5 0 0.8 0.5 1.5 1 1.5 0.6 0 1 -0.7 1 -1.5z"/>
  <path d="M153.5 31.4 c-1.9 -4.1 -2 -3.9 2.6 -5.8 3.6 -1.5 3.6 -1.5 5.2 2 1 1.9 1.7 3.7 1.7 3.9 0 0.4 -6.7 3.5 -7.5 3.5 -0.2 0 -1 -1.6 -2 -3.6z"/>
  <path d="M135.5 35.5 c-0.5 -0.2 -2.2 -0.6 -3.7 -0.9 -2.4 -0.5 -2.8 -1.1 -2.7 -3.9 0 -1.7 0.6 -4.8 1.3 -6.7 1.1 -3 1.7 -3.5 4.2 -3.2 1.6 0.1 3.5 0.5 4.2 0.7 1.5 0.5 1.6 5.7 0.1 10.8 -1 3.6 -1.3 3.9 -3.4 3.2z m1 -5.2 c0.3 -1 0.2 -1.9 -0.4 -2.1 -0.5 -0.2 -0.7 -1 -0.4 -1.8 0.3 -0.8 0.1 -1.4 -0.3 -1.4 -1.2 0 -3.5 5.1 -2.8 6.1 0.9 1.5 3.2 1 3.9 -0.8z"/>
  <path d="M134.2 19.2 c-1.3 -0.9 -1.7 -3.2 -1.4 -9.4 0.2 -3.6 0.4 -3.8 3.7 -3.8 3.9 0 4.2 0.9 2.4 7.3 -0.6 2.1 -0.8 4.4 -0.6 5 0.2 0.7 1 -1.6 1.8 -5 0.7 -3.5 1.6 -6.3 2 -6.3 0.8 0 -0.5 6.2 -2.1 10.4 -1 2.6 -3.3 3.3 -5.8 1.8z"/>
  <path d="M137 5 c-3.5 -0.7 -3.5 -0.7 0.2 -0.9 2 0 4 0.4 4.3 0.9 0.7 1.1 0.7 1.1 -4.5 0z"/>
  <path d="M83.6 28.5 c-0.9 -1.3 -1.6 -2.8 -1.6 -3.3 0 -0.7 6.4 -3.2 8.4 -3.2 1.3 0 0.5 5.9 -1 7.4 -2.2 2.2 -3.9 2 -5.8 -0.9z m2.1 -0.9 c-1.2 -1.4 -2.4 -2.3 -2.6 -2 -0.5 0.5 3 4.4 4 4.4 0.4 0 -0.2 -1.1 -1.4 -2.4z"/>
  <path d="M98.2 24.7 c-1.2 -1.3 -2.2 -2.8 -2.2 -3.4 0 -0.8 6.2 -3.3 8.4 -3.3 1.3 0 0.5 5.9 -1 7.4 -2.1 2.1 -2.7 2 -5.2 -0.7z m1.5 -1.1 c-1.2 -1.4 -2.4 -2.3 -2.6 -2 -0.5 0.5 3 4.4 4 4.4 0.4 0 -0.2 -1.1 -1.4 -2.4z"/>
  <path d="M111.5 19.8 c-3 -3.5 -2.9 -3.7 4.3 -5.2 3.1 -0.7 3.2 -0.6 3.2 2.2 0 2.9 -2.1 6.2 -4 6.2 -0.4 0 -2 -1.4 -3.5 -3.2z m2.4 -0.2 c-1.3 -1.4 -2.6 -2.3 -2.8 -2 -0.6 0.6 3 4.4 4.2 4.4 0.5 0 -0.1 -1.1 -1.4 -2.4z"/>
  <path d="M95.5 10.1 c-0.2 -0.5 0.4 -1.1 1.5 -1.4 1.1 -0.3 2 -0.2 2 0.3 0 1.2 -2.8 2.1 -3.5 1.1z"/>
  <path d="M91 8.3 c0 -0.5 2.5 -1.5 5.5 -2.4 6.7 -2 7.4 -0.7 0.8 1.5 -5.2 1.8 -6.3 1.9 -6.3 0.9z"/>
  <path d="M14.4 27.3 c0.4 -1.6 1.6 -3.5 2.7 -4.3 1.2 -0.8 3.2 -2.5 4.6 -3.7 2.5 -2.4 7.7 -3.1 8.9 -1.1 0.4 0.6 -0.7 2.3 -2.7 4 -4.2 3.5 -7.4 5.5 -6.5 3.9 1 -1.6 0.1 -1.4 -3.6 0.9 -3.5 2.1 -3.2 2.7 0.5 0.9 2.1 -1 2.1 -1 0.3 0.5 -3.2 2.6 -4.9 2 -4.2 -1.1z m12.7 -6 c1.8 -2 2.5 -3.1 1.4 -2.3 -3.8 2.9 -7 6 -5.9 6 0.5 0 2.6 -1.7 4.5 -3.7z"/>
  <path d="M14 21.2 c-3.8 -0.6 -7 -4.1 -7 -7.7 0 -3.3 2.4 -7.5 4.2 -7.5 0.7 0 0.2 0.9 -1 2 -2.2 2.1 -3.1 8.3 -1.4 9.4 0.4 0.2 0.6 -1.2 0.4 -3.2 -0.3 -5 3.6 -9.7 7.4 -8.8 10 2.5 7.5 17.4 -2.6 15.8z m3.8 -5.4 c1.6 -1.6 1.5 -3.3 -0.3 -5.1 -1.9 -1.9 -5.2 -1.1 -6 1.5 -1.2 3.7 3.5 6.4 6.3 3.6z"/>
  <path d="M233.6 23.8 c-0.3 -0.7 -0.7 -4.5 -1 -8.5 -0.5 -7.2 -0.5 -7.2 3.9 -7.9 2.4 -0.3 5 -0.4 5.7 -0.1 0.7 0.3 0.2 0.6 -1.3 0.6 -2.5 0.1 -2.5 0.2 -1.8 5.9 1.4 10.7 1.3 11.2 -2.1 11.2 -1.7 0 -3.2 -0.6 -3.4 -1.2z"/>
  <path d="M241 21.4 c0 -1.6 -0.3 -4.5 -0.6 -6.4 -0.6 -3.5 -0.6 -3.5 4.1 -3.8 4.7 -0.3 4.7 -0.3 4 2.6 -1.4 6.4 7.5 10.4 11.7 5.3 2.5 -3.1 2.3 -5.7 -0.7 -8.6 -2.8 -2.9 -5.1 -3.1 -8.3 -0.9 -2 1.4 -2.2 1.4 -2.2 -0.1 0 -0.8 -1 -1.9 -2.2 -2.4 -1.6 -0.6 0 -1 6.1 -1.5 4.5 -0.4 8.5 -0.6 8.7 -0.4 0.2 0.2 0.6 2.9 0.9 5.9 0.3 2.9 0.8 6.6 1 8.2 0.2 1.6 -0.2 2.7 -0.8 2.8 -0.7 0 -2.1 0.2 -3.2 0.4 -1.1 0.3 -5.7 0.7 -10.2 1.1 -8.3 0.7 -8.3 0.7 -8.3 -2.2z"/>
  <path d="M251.1 18.1 c-2.2 -3.9 -0.7 -8.1 2.9 -8.1 1.3 0 1.3 0.1 0 1 -1.2 0.8 -1 1 0.8 1 1.5 0 2.1 -0.4 1.6 -1.1 -0.4 -0.7 -0.1 -1 0.7 -0.7 0.8 0.3 1.9 1.5 2.6 2.9 1 1.9 1 2.8 -0.1 4.4 -1.9 2.8 -7.1 3.2 -8.5 0.6z m5.9 -3.2 c0 -1.1 -0.6 -1.9 -1.4 -1.9 -0.8 0 -2.1 -0.3 -3 -0.6 -1.2 -0.5 -1.6 0 -1.6 1.8 0 3.2 0.5 3.6 3.5 3 1.6 -0.3 2.5 -1.1 2.5 -2.3z"/>
  <path d="M243.3 8.8 c2.1 -0.7 3.2 -0.7 4 0.1 0.8 0.8 0 1.1 -2.8 1 -4 -0.1 -4 -0.1 -1.2 -1.1z"/>
  <path d="M62.5 184.5 c11.1 -2.3 12.4 -2.2 12.5 1.3 0 1.6 -7.7 1.6 -8.2 0 -0.3 -0.9 -1.5 -0.9 -5 0 -2.6 0.7 -5.9 1.2 -7.5 1.1 -1.5 0 2.1 -1.1 8.2 -2.4z m11 0.5 c0.3 -0.6 -0.5 -1 -1.9 -1 -1.4 0 -2.8 0.5 -3.1 1 -0.3 0.6 0.5 1 1.9 1 1.4 0 2.8 -0.4 3.1 -1z"/>
  <path d="M112.6 185.4 c-1 -2.6 -0.7 -9.2 0.3 -7.4 1.5 2.5 2.4 9 1.3 9 -0.5 0 -1.3 -0.7 -1.6 -1.6z"/>
  <path d="M150.2 184.5 c-1.1 -2.4 -0.8 -2.6 11.7 -9.5 7.1 -3.8 13.1 -7 13.4 -7 0.3 0 2.4 3.5 4.7 7.7 4.1 7.7 4.1 7.7 1.9 9.4 -1.7 1.3 -4.8 1.7 -15 1.8 -11.8 0.2 -12.9 0 -13.8 -1.8 -1 -1.8 -0.2 -2.5 8.6 -7.5 13.7 -7.7 12.6 -7.6 16.3 -1 3.3 5.7 3.3 5.7 0.9 7.5 -1.3 1 -1.9 1.9 -1.3 1.9 0.5 0 1.9 -0.6 3 -1.4 1.9 -1.5 1.8 -1.6 -1.5 -8 -1.8 -3.6 -3.9 -6.6 -4.5 -6.6 -1.4 0 -23.6 11.9 -23.6 12.6 0 0.3 0.5 1.4 1 2.5 0.6 1 0.7 1.9 0.2 1.9 -0.5 0 -1.4 -1.1 -2 -2.5z"/>
  <path d="M4.6 179 c-4 -3.1 -5.8 -6.4 -2.8 -5.3 1.1 0.5 1.3 0.3 0.7 -0.7 -0.5 -0.9 -0.4 -1.1 0.4 -0.6 0.6 0.4 0.9 1.2 0.6 1.7 -0.4 0.5 0.1 1.2 1 1.5 1 0.4 1.3 0.9 0.6 1.3 -0.6 0.4 -0.2 1.2 0.9 1.9 1.2 0.7 2 0.8 2 0.2 0 -0.5 -0.5 -1 -1.1 -1 -0.5 0 -0.8 -0.4 -0.4 -0.9 0.3 -0.6 -0.3 -1.4 -1.2 -2 -1.4 -0.8 -1.5 -1 -0.3 -1.1 0.8 0 0 -1 -1.7 -2.2 -1.8 -1.3 -3.3 -2.9 -3.3 -3.5 0 -1.7 0.1 -1.7 4 1.2 1.9 1.4 3.9 2.5 4.5 2.5 1.8 0 8.8 -10.8 8.1 -12.5 -0.3 -0.9 0 -1.5 0.9 -1.5 0.8 0 1.5 0.6 1.5 1.3 0 1.7 -8.8 14.7 -10 14.7 -1.4 0 -1.2 2 0.4 5.3 2 3.6 0.3 3.5 -4.8 -0.3z"/>
  <path d="M109.3 178.9 c-0.7 -1.9 -1.9 -4.4 -2.7 -5.4 -1.4 -1.9 -1.5 -1.9 -6.5 0.5 -5 2.3 -5.1 2.3 -6.6 0.4 -0.8 -1 -1.5 -2.2 -1.5 -2.5 0 -1 12 -9.9 13.4 -9.9 2.5 0 4.8 3.1 4.1 5.7 -0.3 1.3 -0.1 4.1 0.6 6.1 0.6 2.1 0.9 4.9 0.7 6.2 -0.3 2.1 -0.4 2 -1.5 -1.1z m-0.7 -12.5 c-0.1 -0.9 -1 -2 -1.9 -2.6 -1.5 -0.8 -1.6 -0.6 -0.5 1.6 1.3 2.9 2.8 3.5 2.4 1z"/>
  <path d="M90.2 180.3 c-1.3 -0.5 -4.2 -5.5 -4.2 -7.3 0 -2.2 5.1 -0.5 6.8 2.2 1.5 2.5 1.5 2.9 0.2 4.2 -0.8 0.7 -2.1 1.1 -2.8 0.9z"/>
  <path d="M261.2 170.2 c-4.5 -3 -8 -5.8 -7.7 -6 0.3 -0.3 1.1 0 1.7 0.6 1.6 1.6 3.1 1.5 2.2 0 -0.4 -0.8 -0.3 -1 0.2 -0.5 0.5 0.5 0.9 1.4 0.9 2 0 0.5 0.6 1.2 1.4 1.5 0.8 0.3 1.1 0 0.7 -0.6 -0.3 -0.6 -0.2 -1.3 0.4 -1.7 2.2 -1.3 -0.2 -2.3 -5 -2 -2.7 0.2 -5.2 -0.1 -5.6 -0.6 -0.5 -0.8 1 -1.3 3 -1 1.7 0.3 4.6 -1.1 4.6 -2.2 0 -0.7 2 -4.2 4.5 -7.9 3.1 -4.7 5 -6.6 6 -6.2 0.8 0.4 1.5 1 1.5 1.5 0 0.4 -0.7 0.6 -1.5 0.3 -1 -0.4 -2.7 1.4 -5.4 5.6 -4.5 7 -4.6 6.8 3.7 11.5 3.4 2 4.5 4.8 1.5 3.9 -1.7 -0.5 -1.7 -0.5 0 0.9 1.7 1.4 1.7 1.5 0 2.2 -1.7 0.6 -1.7 0.7 0.1 2.1 1.1 0.7 1.8 1.6 1.5 1.8 -0.2 0.2 -4.1 -2.1 -8.7 -5.2z m6.3 0.9 c0.3 -0.5 0.1 -1.2 -0.5 -1.6 -0.6 -0.4 -0.8 -1 -0.5 -1.5 0.7 -1.1 -3.2 -3.3 -4.4 -2.5 -1.2 0.7 -0.7 3.8 0.7 4.3 0.7 0.2 0.9 -0.5 0.7 -1.9 -0.2 -1.2 -0.1 -1.8 0.3 -1.5 0.4 0.4 0.8 1.6 0.8 2.7 0.1 1 0.2 2.1 0.3 2.4 0.2 0.8 1.9 0.6 2.6 -0.4z"/>
  <path d="M3.8 168.2 c-3.8 -2.5 -3.8 -2.5 -3.8 -10.4 0 -4.3 0.2 -7.8 0.5 -7.8 1 0 15.5 9.5 15.5 10.1 0 1.4 -6.6 10.9 -7.5 10.8 -0.5 -0.1 -2.7 -1.3 -4.7 -2.7z"/>
  <path d="M264.8 162.3 c-2.1 -1.4 -3.8 -3 -3.8 -3.4 0 -1.7 6.5 -10.9 7.5 -10.6 1.2 0.4 2 16.7 0.8 16.6 -0.4 0 -2.5 -1.2 -4.5 -2.6z"/>
  <path d="M7.2 152.8 c-4 -2.7 -7.1 -5.2 -6.9 -5.5 0.6 -0.5 15.7 9.4 15.7 10.2 0 1.1 -1.9 0.1 -8.8 -4.7z"/>
  <path d="M11.7 135.7 c2.3 -4 8.3 -9.8 9.3 -9.2 0.8 0.5 -0.4 2.4 -3.6 5.6 -4.6 4.7 -7.4 6.4 -5.7 3.6z"/>
  <path d="M3.9 131.7 c-3.1 -2 -3.4 -2.8 -3.7 -7.7 -0.3 -5.4 -0.3 -5.4 4.9 -0.3 2.9 2.9 5.6 5 6.1 4.7 0.4 -0.3 0.2 -1.1 -0.5 -1.8 -0.6 -0.8 -1.5 -1.2 -1.9 -0.9 -0.5 0.2 -0.8 0 -0.8 -0.5 0 -1.3 -3.6 -5.3 -4.3 -4.6 -0.3 0.3 -0.8 -0.4 -1.2 -1.5 -0.3 -1.2 -1.1 -2.1 -1.6 -2.1 -0.5 0 -0.9 -1 -0.9 -2.3 0 -2.4 3.6 -5.3 6 -4.8 3.8 0.7 11 10.5 11 14.8 -0.1 2.2 -6.3 9.3 -8.3 9.3 -0.8 0 -2.9 -1 -4.8 -2.3z m10.1 -10.8 c0 -2.1 -5.9 -8.9 -7.8 -8.9 -0.5 0 -1.5 0.7 -2.2 1.5 -1 1.2 -0.6 2.2 2.8 5.5 4.4 4.4 7.2 5.2 7.2 1.9z"/>
  <path d="M7.9 118.1 c-1.7 -1.8 -2.9 -3.4 -2.6 -3.7 0.8 -0.8 5.4 2.5 6.1 4.3 1.1 2.8 -0.3 2.6 -3.5 -0.6z"/>
  <path d="M266.4 124.7 c-1.6 -1.8 -3.8 -3.8 -4.8 -4.4 -1 -0.6 -1.6 -1.5 -1.2 -2.2 0.6 -1 7.8 -5.1 8.9 -5.1 0.2 0 0.4 3.4 0.5 7.5 0.1 4.1 0.1 7.5 -0.1 7.5 -0.2 0 -1.7 -1.5 -3.3 -3.3z"/>
  <path d="M264 113.6 c0 -0.3 1.4 -1.2 3 -2.1 1.7 -0.9 3 -1.3 3 -1.1 0 0.3 -1.3 1.2 -3 2.1 -1.6 0.9 -3 1.3 -3 1.1z"/>
  <path d="M0 95.9 c0 -0.6 0.9 -1.3 2 -1.6 1.9 -0.5 2.4 -1.4 2.1 -4 -0.1 -0.7 0.5 -1.3 1.4 -1.3 0.9 0 1.5 0.9 1.5 2.4 0 1.8 0.6 2.6 2.2 2.8 1.2 0.2 2.3 0.8 2.5 1.4 0.2 0.7 -1.8 1.2 -5.7 1.3 -3.9 0.1 -6 -0.2 -6 -1z"/>
  <path d="M20.3 96.4 c-2.1 -0.9 -1.7 -15.8 0.4 -17.9 4.8 -4.8 11.4 -3.5 13.6 2.8 1 2.7 -0.2 2 -1.3 -0.8 -1.9 -4.9 -9.5 -5.3 -11.9 -0.6 -1.8 3.2 -1.3 8.6 0.9 10.6 1.4 1.2 1.7 2.2 1 3 -1.4 1.7 -0.2 2.5 4.1 2.5 4.1 0 5.9 -1.4 3.2 -2.4 -1.4 -0.6 -1.4 -0.8 0.5 -2.2 1.2 -0.8 2.6 -2.9 3.1 -4.7 0.8 -2.8 0.9 -2.3 0.9 3.4 0 6.5 0 6.5 -6.7 6.6 -3.6 0.1 -7.2 -0.1 -7.8 -0.3z"/>
  <path d="M36.3 90 c0 -3.6 0.2 -5 0.4 -3.2 0.2 1.7 0.2 4.7 0 6.5 -0.2 1.7 -0.4 0.3 -0.4 -3.3z"/>
  <path d="M23 90 c-2.6 -2.6 -2.6 -8.1 -0.2 -10.3 4.8 -4.4 11 0 9.8 6.8 -1 5.4 -5.9 7.2 -9.6 3.5z m6 -1.6 c0 -0.8 -0.9 -1.4 -2 -1.4 -1.9 0 -2.7 1.9 -1.4 3.3 1 0.9 3.4 -0.4 3.4 -1.9z"/>
  <path d="M17.2 88 c0 -1.9 0.2 -2.7 0.5 -1.7 0.2 0.9 0.2 2.5 0 3.5 -0.3 0.9 -0.5 0.1 -0.5 -1.8z"/>
  <path d="M5.4 77 c0 -5.8 0.1 -8.1 0.3 -5.2 0.2 2.8 0.2 7.6 0 10.5 -0.2 2.8 -0.3 0.5 -0.3 -5.3z"/>
  <path d="M255.6 60.1 c-0.3 -0.5 1 -1.8 2.9 -3 5 -2.9 6.3 -6.2 4.2 -10.6 -2.1 -4.4 -5.9 -6.9 -9.2 -6.1 -1.4 0.4 -2.5 1.2 -2.5 2 0 0.7 -1.1 1.8 -2.5 2.4 -3.2 1.5 -3.2 1.5 -3.9 -0.4 -1.4 -3.6 5.2 -9.4 10.7 -9.4 4 0 9 2.3 12.1 5.6 2.4 2.7 3.7 6.2 1.7 5 -0.4 -0.3 -1.6 0.1 -2.7 0.8 -1.6 1.2 -1.6 1.6 -0.5 3 0.8 0.9 2 1.5 2.8 1.2 0.7 -0.3 1.3 0.1 1.3 0.8 0 1 -7.3 6.2 -13.2 9.3 -0.4 0.2 -0.9 -0.1 -1.2 -0.6z"/>
  <path d="M248.8 55.9 c-2.7 -1.5 -2.2 -2.5 2.1 -5 4.6 -2.5 5.6 -2.3 5.6 1.1 0 4.2 -3.9 6.2 -7.7 3.9z"/>
  <path d="M259.6 52.2 c0.7 -3.3 -1.1 -7.6 -2.8 -6.6 -0.7 0.4 -0.7 0.9 0.1 1.4 0.7 0.3 -0.2 0.7 -1.8 0.7 -2.7 0 -3 -0.3 -2.6 -2.5 0.6 -3.3 1 -3.6 3.9 -2.8 4.4 1.1 7.2 9 4.1 11.6 -1.3 1.1 -1.4 0.8 -0.9 -1.8z"/>
  <path d="M0.1 48.5 c0 -5 0 -5 1.7 -1.7 1.5 3 1.5 3.4 -0.1 4.9 -1.6 1.6 -1.7 1.4 -1.6 -3.2z"/>
  <path d="M200.3 28.7 c-11.7 -3.1 -15.3 -4.5 -15.3 -5.7 0 -3.4 1.9 -3.9 8.8 -2 3.7 1 10.4 2.8 15 4 7.9 2.1 8.2 2.3 8.2 5.1 0 1.6 -0.3 2.8 -0.7 2.8 -0.5 -0.1 -7.7 -2 -16 -4.2z"/>
  <path d="M217.9 23.7 c1.8 -4.6 1.5 -6 -0.9 -4 -2 1.8 -2.8 3.9 -1 2.8 0.6 -0.3 1 -0.2 1 0.4 0 1.1 -3.9 2.5 -4.7 1.7 -0.4 -0.3 0 -0.6 0.8 -0.6 0.8 0 1.5 -1.1 1.5 -2.6 0.1 -1.4 1 -3.1 2 -3.9 1.5 -1.1 1.6 -1.6 0.7 -2.6 -1.8 -1.8 -4.6 -0.3 -4 2.1 0.3 1.1 0.1 2 -0.4 2 -0.4 0 -0.6 0.8 -0.3 1.8 0.5 1.4 0.4 1.5 -0.5 0.2 -0.8 -1.1 -1.1 -1.1 -1.1 -0.2 0 1 -0.3 1 -1.4 0 -0.7 -0.7 -1.1 -1.9 -0.8 -2.7 0.4 -1.1 0.7 -1 1.3 0.5 0.4 1 0.8 1.5 0.9 0.9 0.1 -0.5 0.3 -1.4 0.5 -2 0.1 -0.5 0.3 -1.8 0.3 -2.7 0.2 -1.3 1.1 -1.8 3.2 -1.8 2 0 3.3 0.6 3.7 1.8 1.2 2.9 0.8 9.1 -0.5 10.4 -1.1 1.1 -1.1 0.8 -0.3 -1.5z"/>
  <path d="M43.5 12.3 c-0.9 -4.3 -1.7 -8.5 -1.8 -9.3 -0.2 -1.5 3.5 -2.7 8.8 -2.8 3 -0.1 3 -0.1 -0.5 1.1 -4.9 1.7 -6.7 5.3 -5.2 10.4 1.7 5.8 4.4 6.7 14 4.7 11.9 -2.4 11.4 -2.1 10.8 -6.2 -0.3 -2.1 -0.8 -5.2 -1.2 -7 -0.5 -2.5 -0.3 -3.2 0.9 -3.2 0.8 0 1.8 0.6 2 1.3 0.4 0.9 0.6 0.9 0.6 0 0.1 -0.7 0.7 -1.3 1.5 -1.3 1.5 0 3 3.7 4 10.2 0.7 3.6 0.7 3.6 -5.1 4.8 -3.2 0.6 -10.1 2 -15.3 3.1 -5.2 1 -10 1.9 -10.6 1.9 -0.8 0 -1.9 -3.2 -2.9 -7.7z m32.3 -2.1 c0.2 -1.4 -0.2 -2.2 -1.1 -2.2 -1.9 0 -4 2.6 -3.2 4 1.1 1.8 4 0.6 4.3 -1.8z"/>
  <path d="M222.1 17 c0 -0.8 0.4 -2.4 0.9 -3.5 0.9 -2 0.9 -2 0.9 0 0 1.1 -0.4 2.7 -0.9 3.5 -0.9 1.3 -1 1.3 -0.9 0z"/>
  <path d="M49.4 15.3 c-1.6 -1.1 -3.4 -4.9 -3.4 -7 0 -3.3 1.7 -4.5 8.6 -5.9 3.8 -0.8 7.9 -1.6 9.2 -1.9 1.6 -0.4 2.2 -0.1 2.2 1.2 0 1.6 -0.2 1.6 -1.1 0.3 -0.8 -1.1 -0.9 -0.2 -0.5 3.3 0.7 5.8 1.5 7.5 2.7 5.6 0.7 -1.1 0.9 -1.1 0.9 0.2 0 1.1 -1.8 1.9 -6.7 2.8 -3.8 0.7 -7.7 1.4 -8.8 1.7 -1.1 0.2 -2.5 0.1 -3.1 -0.3z"/>
  <path d="M210.3 13.5 c0.2 -2.7 -0.2 -3 -4.6 -4.3 -5.5 -1.6 -7.7 -1.1 -7.7 1.7 0 1.7 -0.4 1.8 -4 0.9 -3.7 -1 -3.9 -1.2 -3.3 -4.2 0.8 -4.4 2.1 -7.6 3 -7.6 1.9 0 27.8 7.1 28.5 7.8 0.4 0.4 0.5 1.8 0.1 3.1 -0.5 2 -1 2.2 -4 1.6 -1.9 -0.3 -4 -0.8 -4.8 -1.1 -0.8 -0.3 -1.7 0.6 -2.4 2.3 -1 2.8 -1 2.8 -0.8 -0.2z m-13.8 -6.5 c-1.1 -0.5 -2.7 -0.9 -3.5 -0.9 -1.3 -0.1 -1.3 0 0 0.9 0.8 0.5 2.4 0.9 3.5 0.9 2 0 2 0 0 -0.9z"/>
  <path d="M168.8 11.1 c2.2 -1.9 2.9 -4.5 1.4 -5.5 -0.4 -0.2 -3.2 0.8 -6.1 2.4 -3 1.7 -5.8 2.7 -6.2 2.4 -0.5 -0.3 -2 -2.7 -3.4 -5.4 -2.5 -4.9 -2.5 -4.9 10.8 -4.8 12.2 0 13 0.1 10.4 1.5 -1.9 0.9 -2.7 2 -2.3 3 0.3 0.8 0.6 1.6 0.6 1.8 0 0.2 1.3 0 3 -0.5 1.7 -0.5 3.2 -0.5 3.5 0.1 0.9 1.3 -8.5 6.9 -11.4 6.9 -2.6 -0.1 -2.6 -0.1 -0.3 -1.9z m-2.3 -5.8 c3.5 -2 6.2 -3.9 6 -4.1 -0.2 -0.3 -3.2 1.2 -6.5 3.2 -3.4 2 -6.5 3.6 -6.8 3.6 -0.4 0 -1.6 -1.6 -2.6 -3.5 -1.1 -1.9 -2.1 -3.3 -2.4 -3.1 -0.7 0.7 3.8 7.6 4.9 7.6 0.6 0 3.9 -1.7 7.4 -3.7z"/>
 </g>
 <g fill="#d1d1d1">
 </g>
 <g fill="#b9b9b9">
 </g>
 <g fill="#a2a2a2">
 </g>
 <g fill="#8b8b8b">
 </g>
 <g fill="#747474">
 </g>
 <g fill="#5d5d5d">
 </g>
 <g fill="#464646">
 </g>
 <g fill="#2e2e2e">
 </g>
 <g fill="#171717">
 </g>
 <g fill="#000000">
 </g>
</svg>